<?xml version="1.0" encoding="utf-8" standalone="no"?>
<!DOCTYPE svg PUBLIC "-//W3C//DTD SVG 1.1//EN"
  "http://www.w3.org/Graphics/SVG/1.1/DTD/svg11.dtd">
<svg xmlns:xlink="http://www.w3.org/1999/xlink" width="355.747173pt" height="348.203651pt" viewBox="0 0 355.747173 348.203651" xmlns="http://www.w3.org/2000/svg" version="1.1">
 <metadata>
  <rdf:RDF xmlns:dc="http://purl.org/dc/elements/1.1/" xmlns:cc="http://creativecommons.org/ns#" xmlns:rdf="http://www.w3.org/1999/02/22-rdf-syntax-ns#">
   <cc:Work>
    <dc:type rdf:resource="http://purl.org/dc/dcmitype/StillImage"/>
    <dc:format>image/svg+xml</dc:format>
    <dc:creator>
     <cc:Agent>
      <dc:title>Matplotlib v3.9.4, https://matplotlib.org/</dc:title>
     </cc:Agent>
    </dc:creator>
   </cc:Work>
  </rdf:RDF>
 </metadata>
 <defs>
  <style type="text/css">*{stroke-linejoin: round; stroke-linecap: butt}</style>
 </defs>
 <g id="figure_1">
  <g id="patch_1">
   <path d="M 0 348.203651 
L 355.747173 348.203651 
L 355.747173 -0 
L 0 -0 
L 0 348.203651 
z
" style="fill: none"/>
  </g>
  <g id="axes_1">
   <g id="patch_2">
    <path d="M 47.504375 306.776151 
L 331.206769 306.776151 
L 331.206769 23.077969 
L 47.504375 23.077969 
L 47.504375 306.776151 
z
" style="fill: none"/>
   </g>
   <g id="matplotlib.axis_1">
    <g id="xtick_1">
     <g id="line2d_1">
      <path d="M 74.01241 306.776151 
L 74.01241 23.077969 
" clip-path="url(#pc962806ac7)" style="fill: none; stroke: #242b52; stroke-opacity: 0.7; stroke-width: 0.8; stroke-linecap: square"/>
     </g>
     <g id="line2d_2">
      <defs>
       <path id="ma0df52fa23" d="M 0 0 
L 0 3.5 
" style="stroke: #9aa3c7; stroke-width: 0.8"/>
      </defs>
      <g>
       <use xlink:href="#ma0df52fa23" x="74.01241" y="306.776151" style="fill: #9aa3c7; stroke: #9aa3c7; stroke-width: 0.8"/>
      </g>
     </g>
     <g id="text_1">
      <!-- −2 -->
      <g style="fill: #9aa3c7" transform="translate(65.167098 322.894276) scale(0.12 -0.12)">
       <defs>
        <path id="DejaVuSans-2212" d="M 678 2272 
L 4684 2272 
L 4684 1741 
L 678 1741 
L 678 2272 
z
" transform="scale(0.015625)"/>
        <path id="DejaVuSans-32" d="M 1228 531 
L 3431 531 
L 3431 0 
L 469 0 
L 469 531 
Q 828 903 1448 1529 
Q 2069 2156 2228 2338 
Q 2531 2678 2651 2914 
Q 2772 3150 2772 3378 
Q 2772 3750 2511 3984 
Q 2250 4219 1831 4219 
Q 1534 4219 1204 4116 
Q 875 4013 500 3803 
L 500 4441 
Q 881 4594 1212 4672 
Q 1544 4750 1819 4750 
Q 2544 4750 2975 4387 
Q 3406 4025 3406 3419 
Q 3406 3131 3298 2873 
Q 3191 2616 2906 2266 
Q 2828 2175 2409 1742 
Q 1991 1309 1228 531 
z
" transform="scale(0.015625)"/>
       </defs>
       <use xlink:href="#DejaVuSans-2212"/>
       <use xlink:href="#DejaVuSans-32" x="83.789062"/>
      </g>
     </g>
    </g>
    <g id="xtick_2">
     <g id="line2d_3">
      <path d="M 131.685043 306.776151 
L 131.685043 23.077969 
" clip-path="url(#pc962806ac7)" style="fill: none; stroke: #242b52; stroke-opacity: 0.7; stroke-width: 0.8; stroke-linecap: square"/>
     </g>
     <g id="line2d_4">
      <g>
       <use xlink:href="#ma0df52fa23" x="131.685043" y="306.776151" style="fill: #9aa3c7; stroke: #9aa3c7; stroke-width: 0.8"/>
      </g>
     </g>
     <g id="text_2">
      <!-- −1 -->
      <g style="fill: #9aa3c7" transform="translate(122.83973 322.894276) scale(0.12 -0.12)">
       <defs>
        <path id="DejaVuSans-31" d="M 794 531 
L 1825 531 
L 1825 4091 
L 703 3866 
L 703 4441 
L 1819 4666 
L 2450 4666 
L 2450 531 
L 3481 531 
L 3481 0 
L 794 0 
L 794 531 
z
" transform="scale(0.015625)"/>
       </defs>
       <use xlink:href="#DejaVuSans-2212"/>
       <use xlink:href="#DejaVuSans-31" x="83.789062"/>
      </g>
     </g>
    </g>
    <g id="xtick_3">
     <g id="line2d_5">
      <path d="M 189.357675 306.776151 
L 189.357675 23.077969 
" clip-path="url(#pc962806ac7)" style="fill: none; stroke: #242b52; stroke-opacity: 0.7; stroke-width: 0.8; stroke-linecap: square"/>
     </g>
     <g id="line2d_6">
      <g>
       <use xlink:href="#ma0df52fa23" x="189.357675" y="306.776151" style="fill: #9aa3c7; stroke: #9aa3c7; stroke-width: 0.8"/>
      </g>
     </g>
     <g id="text_3">
      <!-- 0 -->
      <g style="fill: #9aa3c7" transform="translate(185.540175 322.894276) scale(0.12 -0.12)">
       <defs>
        <path id="DejaVuSans-30" d="M 2034 4250 
Q 1547 4250 1301 3770 
Q 1056 3291 1056 2328 
Q 1056 1369 1301 889 
Q 1547 409 2034 409 
Q 2525 409 2770 889 
Q 3016 1369 3016 2328 
Q 3016 3291 2770 3770 
Q 2525 4250 2034 4250 
z
M 2034 4750 
Q 2819 4750 3233 4129 
Q 3647 3509 3647 2328 
Q 3647 1150 3233 529 
Q 2819 -91 2034 -91 
Q 1250 -91 836 529 
Q 422 1150 422 2328 
Q 422 3509 836 4129 
Q 1250 4750 2034 4750 
z
" transform="scale(0.015625)"/>
       </defs>
       <use xlink:href="#DejaVuSans-30"/>
      </g>
     </g>
    </g>
    <g id="xtick_4">
     <g id="line2d_7">
      <path d="M 247.030307 306.776151 
L 247.030307 23.077969 
" clip-path="url(#pc962806ac7)" style="fill: none; stroke: #242b52; stroke-opacity: 0.7; stroke-width: 0.8; stroke-linecap: square"/>
     </g>
     <g id="line2d_8">
      <g>
       <use xlink:href="#ma0df52fa23" x="247.030307" y="306.776151" style="fill: #9aa3c7; stroke: #9aa3c7; stroke-width: 0.8"/>
      </g>
     </g>
     <g id="text_4">
      <!-- 1 -->
      <g style="fill: #9aa3c7" transform="translate(243.212807 322.894276) scale(0.12 -0.12)">
       <use xlink:href="#DejaVuSans-31"/>
      </g>
     </g>
    </g>
    <g id="xtick_5">
     <g id="line2d_9">
      <path d="M 304.702939 306.776151 
L 304.702939 23.077969 
" clip-path="url(#pc962806ac7)" style="fill: none; stroke: #242b52; stroke-opacity: 0.7; stroke-width: 0.8; stroke-linecap: square"/>
     </g>
     <g id="line2d_10">
      <g>
       <use xlink:href="#ma0df52fa23" x="304.702939" y="306.776151" style="fill: #9aa3c7; stroke: #9aa3c7; stroke-width: 0.8"/>
      </g>
     </g>
     <g id="text_5">
      <!-- 2 -->
      <g style="fill: #9aa3c7" transform="translate(300.885439 322.894276) scale(0.12 -0.12)">
       <use xlink:href="#DejaVuSans-32"/>
      </g>
     </g>
    </g>
    <g id="text_6">
     <!-- $x_1$ -->
     <g style="fill: #9aa3c7" transform="translate(182.935572 338.508026) scale(0.12 -0.12)">
      <defs>
       <path id="DejaVuSans-Oblique-78" d="M 3841 3500 
L 2234 1784 
L 3219 0 
L 2559 0 
L 1819 1388 
L 531 0 
L -166 0 
L 1556 1844 
L 641 3500 
L 1300 3500 
L 1972 2234 
L 3144 3500 
L 3841 3500 
z
" transform="scale(0.015625)"/>
      </defs>
      <use xlink:href="#DejaVuSans-Oblique-78" transform="translate(0 0.3125)"/>
      <use xlink:href="#DejaVuSans-31" transform="translate(59.179688 -16.09375) scale(0.7)"/>
     </g>
    </g>
   </g>
   <g id="matplotlib.axis_2">
    <g id="ytick_1">
     <g id="line2d_11">
      <path d="M 47.504375 280.278256 
L 331.206769 280.278256 
" clip-path="url(#pc962806ac7)" style="fill: none; stroke: #242b52; stroke-opacity: 0.7; stroke-width: 0.8; stroke-linecap: square"/>
     </g>
     <g id="line2d_12">
      <defs>
       <path id="m43168485d6" d="M 0 0 
L -3.5 0 
" style="stroke: #9aa3c7; stroke-width: 0.8"/>
      </defs>
      <g>
       <use xlink:href="#m43168485d6" x="47.504375" y="280.278256" style="fill: #9aa3c7; stroke: #9aa3c7; stroke-width: 0.8"/>
      </g>
     </g>
     <g id="text_7">
      <!-- −2 -->
      <g style="fill: #9aa3c7" transform="translate(22.81375 284.837319) scale(0.12 -0.12)">
       <use xlink:href="#DejaVuSans-2212"/>
       <use xlink:href="#DejaVuSans-32" x="83.789062"/>
      </g>
     </g>
    </g>
    <g id="ytick_2">
     <g id="line2d_13">
      <path d="M 47.504375 222.605624 
L 331.206769 222.605624 
" clip-path="url(#pc962806ac7)" style="fill: none; stroke: #242b52; stroke-opacity: 0.7; stroke-width: 0.8; stroke-linecap: square"/>
     </g>
     <g id="line2d_14">
      <g>
       <use xlink:href="#m43168485d6" x="47.504375" y="222.605624" style="fill: #9aa3c7; stroke: #9aa3c7; stroke-width: 0.8"/>
      </g>
     </g>
     <g id="text_8">
      <!-- −1 -->
      <g style="fill: #9aa3c7" transform="translate(22.81375 227.164686) scale(0.12 -0.12)">
       <use xlink:href="#DejaVuSans-2212"/>
       <use xlink:href="#DejaVuSans-31" x="83.789062"/>
      </g>
     </g>
    </g>
    <g id="ytick_3">
     <g id="line2d_15">
      <path d="M 47.504375 164.932992 
L 331.206769 164.932992 
" clip-path="url(#pc962806ac7)" style="fill: none; stroke: #242b52; stroke-opacity: 0.7; stroke-width: 0.8; stroke-linecap: square"/>
     </g>
     <g id="line2d_16">
      <g>
       <use xlink:href="#m43168485d6" x="47.504375" y="164.932992" style="fill: #9aa3c7; stroke: #9aa3c7; stroke-width: 0.8"/>
      </g>
     </g>
     <g id="text_9">
      <!-- 0 -->
      <g style="fill: #9aa3c7" transform="translate(32.869375 169.492054) scale(0.12 -0.12)">
       <use xlink:href="#DejaVuSans-30"/>
      </g>
     </g>
    </g>
    <g id="ytick_4">
     <g id="line2d_17">
      <path d="M 47.504375 107.260359 
L 331.206769 107.260359 
" clip-path="url(#pc962806ac7)" style="fill: none; stroke: #242b52; stroke-opacity: 0.7; stroke-width: 0.8; stroke-linecap: square"/>
     </g>
     <g id="line2d_18">
      <g>
       <use xlink:href="#m43168485d6" x="47.504375" y="107.260359" style="fill: #9aa3c7; stroke: #9aa3c7; stroke-width: 0.8"/>
      </g>
     </g>
     <g id="text_10">
      <!-- 1 -->
      <g style="fill: #9aa3c7" transform="translate(32.869375 111.819422) scale(0.12 -0.12)">
       <use xlink:href="#DejaVuSans-31"/>
      </g>
     </g>
    </g>
    <g id="ytick_5">
     <g id="line2d_19">
      <path d="M 47.504375 49.587727 
L 331.206769 49.587727 
" clip-path="url(#pc962806ac7)" style="fill: none; stroke: #242b52; stroke-opacity: 0.7; stroke-width: 0.8; stroke-linecap: square"/>
     </g>
     <g id="line2d_20">
      <g>
       <use xlink:href="#m43168485d6" x="47.504375" y="49.587727" style="fill: #9aa3c7; stroke: #9aa3c7; stroke-width: 0.8"/>
      </g>
     </g>
     <g id="text_11">
      <!-- 2 -->
      <g style="fill: #9aa3c7" transform="translate(32.869375 54.14679) scale(0.12 -0.12)">
       <use xlink:href="#DejaVuSans-32"/>
      </g>
     </g>
    </g>
    <g id="text_12">
     <!-- $x_2$ -->
     <g style="fill: #9aa3c7" transform="translate(16.318125 171.34706) rotate(-90) scale(0.12 -0.12)">
      <use xlink:href="#DejaVuSans-Oblique-78" transform="translate(0 0.3125)"/>
      <use xlink:href="#DejaVuSans-32" transform="translate(59.179688 -16.09375) scale(0.7)"/>
     </g>
    </g>
   </g>
   <g id="line2d_21">
    <path d="M 247.030307 164.932992 
L 246.915357 161.293524 
L 246.570965 157.668564 
L 245.998504 154.072562 
L 245.200257 150.519853 
L 244.179404 147.024599 
L 242.940016 143.600734 
L 241.487033 140.261904 
L 239.826247 137.021422 
L 237.964278 133.892202 
L 235.90855 130.886721 
L 233.667255 128.016958 
L 231.24933 125.294353 
L 228.664413 122.729759 
L 225.922807 120.3334 
L 223.035442 118.114827 
L 220.013827 116.082886 
L 216.870008 114.245676 
L 213.616517 112.61052 
L 210.266323 111.183936 
L 206.832781 109.971613 
L 203.329578 108.978381 
L 199.770679 108.208201 
L 196.170271 107.664143 
L 192.542705 107.348375 
L 188.902444 107.262156 
L 185.263996 107.40583 
L 181.641868 107.778824 
L 178.050497 108.379652 
L 174.504199 109.205918 
L 171.017112 110.254328 
L 167.603136 111.520703 
L 164.27588 112.999996 
L 161.048607 114.686308 
L 157.934183 116.572919 
L 154.945021 118.652307 
L 152.093039 120.916183 
L 149.389604 123.355523 
L 146.845494 125.960604 
L 144.47085 128.721039 
L 142.275138 131.625827 
L 140.267111 134.663386 
L 138.454773 137.821609 
L 136.845349 141.087905 
L 135.445254 144.449256 
L 134.260071 147.89226 
L 133.294522 151.403194 
L 132.552458 154.968061 
L 132.036836 158.572652 
L 131.749711 162.202597 
L 131.692229 165.843426 
L 131.864618 169.480626 
L 132.266192 173.099697 
L 132.895349 176.686214 
L 133.749581 180.225879 
L 134.825483 183.704581 
L 136.118767 187.108455 
L 137.624276 190.423931 
L 139.33601 193.637793 
L 141.247146 196.737229 
L 143.350063 199.709883 
L 145.636381 202.543907 
L 148.096985 205.228003 
L 150.722065 207.751471 
L 153.501159 210.104252 
L 156.423187 212.276967 
L 159.476502 214.260956 
L 162.648932 216.048308 
L 165.92783 217.6319 
L 169.300127 219.005418 
L 172.75238 220.163388 
L 176.270825 221.101193 
L 179.841439 221.815096 
L 183.449988 222.30225 
L 187.082086 222.560713 
L 190.723255 222.589454 
L 194.358981 222.388361 
L 197.97477 221.958233 
L 201.556209 221.300786 
L 205.08902 220.418641 
L 208.559122 219.315313 
L 211.952682 217.995202 
L 215.256171 216.463569 
L 218.456421 214.72652 
L 221.540675 212.79098 
L 224.496638 210.664663 
L 227.312527 208.356047 
L 229.977117 205.874333 
L 232.479785 203.229416 
L 234.810557 200.431837 
L 236.96014 197.49275 
L 238.919965 194.42387 
L 240.682221 191.237431 
L 242.239881 187.946134 
L 243.586738 184.563101 
L 244.717422 181.101816 
L 245.627426 177.576077 
L 246.313122 173.999939 
L 246.771777 170.387658 
L 247.001562 166.753633 
L 247.030307 164.932992 
L 247.030307 164.932992 
" clip-path="url(#pc962806ac7)" style="fill: none; stroke: #242b52; stroke-width: 1.4; stroke-linecap: square"/>
   </g>
   <g id="line2d_22">
    <path d="M 304.702939 107.260359 
L 308.112507 100.096374 
L 311.048683 93.190846 
L 313.499764 86.571303 
L 315.455977 80.264133 
L 316.909526 74.294478 
L 317.854615 68.686134 
L 318.135231 66.0245 
L 318.287478 63.461459 
L 318.311205 60.999568 
L 318.206389 58.641279 
L 317.973134 56.388945 
L 317.611671 54.244809 
L 317.122363 52.21101 
L 316.505695 50.289575 
L 315.762284 48.482419 
L 314.89287 46.791343 
L 313.89832 45.218033 
L 312.779625 43.764058 
L 311.5379 42.430867 
L 310.174384 41.219788 
L 308.690434 40.132029 
L 307.087531 39.168675 
L 305.367273 38.330686 
L 303.531373 37.618896 
L 301.581663 37.034016 
L 299.520086 36.576628 
L 297.348696 36.247188 
L 295.069658 36.046026 
L 292.685245 35.973341 
L 290.197832 36.029205 
L 287.609899 36.213564 
L 284.924027 36.526233 
L 282.142892 36.9669 
L 276.306015 38.230347 
L 270.122537 39.998868 
L 263.617106 42.265413 
L 256.815656 45.020947 
L 249.745298 48.254486 
L 242.434218 51.953139 
L 234.911558 56.102163 
L 227.207308 60.685019 
L 219.352178 65.683437 
L 211.377481 71.077494 
L 203.315007 76.845686 
L 195.196894 82.96502 
L 187.055505 89.411102 
L 178.923293 96.158237 
L 170.832675 103.179528 
L 162.815904 110.446986 
L 154.904935 117.931642 
L 147.131306 125.603659 
L 139.526003 133.432454 
L 132.119344 141.386819 
L 124.940853 149.435047 
L 118.019147 157.545054 
L 111.381818 165.684511 
L 105.055322 173.820972 
L 99.064881 181.922004 
L 93.434374 189.955312 
L 88.186244 197.888874 
L 83.341414 205.691064 
L 78.919196 213.33078 
L 74.937218 220.777569 
L 71.411353 228.001745 
L 68.355657 234.97451 
L 65.78231 241.668069 
L 63.701572 248.05574 
L 62.121735 254.112059 
L 61.049098 259.812884 
L 60.704395 262.522827 
L 60.487937 265.13549 
L 60.399938 267.648269 
L 60.440488 270.05866 
L 60.609545 272.364258 
L 60.906941 274.562767 
L 61.332379 276.651995 
L 61.885436 278.629859 
L 62.56556 280.494387 
L 63.372073 282.243721 
L 64.304171 283.876117 
L 65.360926 285.389948 
L 66.541283 286.783705 
L 67.844066 288.055998 
L 69.267976 289.20556 
L 70.811595 290.231245 
L 72.473382 291.132029 
L 74.251683 291.907015 
L 76.144724 292.555431 
L 78.150618 293.07663 
L 80.267365 293.470092 
L 82.492856 293.735426 
L 84.824872 293.872367 
L 87.261089 293.880779 
L 89.799078 293.760652 
L 92.436309 293.512107 
L 95.170154 293.135392 
L 100.916688 291.99908 
L 107.015774 290.356245 
L 113.4431 288.213436 
L 120.173043 285.579195 
L 127.178776 282.464022 
L 134.432373 278.880337 
L 141.904918 274.842424 
L 149.566623 270.36638 
L 157.386947 265.470048 
L 165.334717 260.172945 
L 173.378248 254.496188 
L 181.485478 248.462405 
L 189.62409 242.09565 
L 197.761639 235.421302 
L 205.865687 228.465967 
L 213.90393 221.257371 
L 221.844324 213.824249 
L 229.655217 206.196233 
L 237.305472 198.403729 
L 244.764593 190.477801 
L 252.002846 182.450044 
L 258.991377 174.352458 
L 265.702327 166.217324 
L 272.108945 158.07707 
L 278.185693 149.964146 
L 283.908346 141.910892 
L 289.254092 133.949411 
L 294.201622 126.11144 
L 298.731213 118.428222 
L 302.824809 110.930387 
L 304.702939 107.260359 
L 304.702939 107.260359 
" clip-path="url(#pc962806ac7)" style="fill: none; stroke: #e0af68; stroke-width: 2; stroke-linecap: square"/>
   </g>
   <g id="patch_3">
    <path d="M 47.504375 306.776151 
L 47.504375 23.077969 
" style="fill: none; stroke: #242b52; stroke-width: 0.8; stroke-linejoin: miter; stroke-linecap: square"/>
   </g>
   <g id="patch_4">
    <path d="M 47.504375 306.776151 
L 331.206769 306.776151 
" style="fill: none; stroke: #242b52; stroke-width: 0.8; stroke-linejoin: miter; stroke-linecap: square"/>
   </g>
   <g id="patch_5">
    <path d="M 190.770837 163.51983 
Q 250.527674 103.762992 308.387145 45.903521 
" style="fill: none; stroke: #7aa2f7; stroke-width: 2.4; stroke-linecap: round"/>
    <path d="M 303.295976 47.600578 
L 308.387145 45.903521 
L 306.690089 50.99469 
z
" style="fill: #7aa2f7; stroke: #7aa2f7; stroke-width: 2.4; stroke-linecap: round"/>
   </g>
   <g id="text_13">
    <!-- $\lambda=3$ -->
    <g style="fill: #7aa2f7" transform="translate(321.487173 32.803493) scale(0.11 -0.11)">
     <defs>
      <path id="DejaVuSans-Oblique-3bb" d="M 2350 4316 
L 3125 0 
L 2516 0 
L 2038 2588 
L 328 0 
L -281 0 
L 1903 3356 
L 1794 3975 
Q 1725 4369 1391 4369 
L 1091 4369 
L 1184 4863 
L 1550 4856 
Q 2253 4847 2350 4316 
z
" transform="scale(0.015625)"/>
      <path id="DejaVuSans-3d" d="M 678 2906 
L 4684 2906 
L 4684 2381 
L 678 2381 
L 678 2906 
z
M 678 1631 
L 4684 1631 
L 4684 1100 
L 678 1100 
L 678 1631 
z
" transform="scale(0.015625)"/>
      <path id="DejaVuSans-33" d="M 2597 2516 
Q 3050 2419 3304 2112 
Q 3559 1806 3559 1356 
Q 3559 666 3084 287 
Q 2609 -91 1734 -91 
Q 1441 -91 1130 -33 
Q 819 25 488 141 
L 488 750 
Q 750 597 1062 519 
Q 1375 441 1716 441 
Q 2309 441 2620 675 
Q 2931 909 2931 1356 
Q 2931 1769 2642 2001 
Q 2353 2234 1838 2234 
L 1294 2234 
L 1294 2753 
L 1863 2753 
Q 2328 2753 2575 2939 
Q 2822 3125 2822 3475 
Q 2822 3834 2567 4026 
Q 2313 4219 1838 4219 
Q 1578 4219 1281 4162 
Q 984 4106 628 3988 
L 628 4550 
Q 988 4650 1302 4700 
Q 1616 4750 1894 4750 
Q 2613 4750 3031 4423 
Q 3450 4097 3450 3541 
Q 3450 3153 3228 2886 
Q 3006 2619 2597 2516 
z
" transform="scale(0.015625)"/>
     </defs>
     <use xlink:href="#DejaVuSans-Oblique-3bb" transform="translate(0 0.015625)"/>
     <use xlink:href="#DejaVuSans-3d" transform="translate(78.662109 0.015625)"/>
     <use xlink:href="#DejaVuSans-33" transform="translate(181.933594 0.015625)"/>
    </g>
   </g>
   <g id="patch_6">
    <path d="M 187.941401 163.516718 
Q 168.966753 144.54207 151.889472 127.464789 
" style="fill: none; stroke: #9ece6a; stroke-width: 2.4; stroke-linecap: round"/>
    <path d="M 153.586528 132.555958 
L 151.889472 127.464789 
L 156.980641 129.161845 
z
" style="fill: #9ece6a; stroke: #9ece6a; stroke-width: 2.4; stroke-linecap: round"/>
   </g>
   <g id="text_14">
    <!-- $\lambda=1$ -->
    <g style="fill: #9ece6a" transform="translate(145.314509 120.889826) scale(0.11 -0.11)">
     <use xlink:href="#DejaVuSans-Oblique-3bb" transform="translate(0 0.015625)"/>
     <use xlink:href="#DejaVuSans-3d" transform="translate(78.662109 0.015625)"/>
     <use xlink:href="#DejaVuSans-31" transform="translate(181.933594 0.015625)"/>
    </g>
   </g>
   <g id="text_15">
    <!-- Symmetric ⇒ orthogonal eigenvectors -->
    <g style="fill: #e6e9f5" transform="translate(65.114166 17.077969) scale(0.13 -0.13)">
     <defs>
      <path id="DejaVuSans-53" d="M 3425 4513 
L 3425 3897 
Q 3066 4069 2747 4153 
Q 2428 4238 2131 4238 
Q 1616 4238 1336 4038 
Q 1056 3838 1056 3469 
Q 1056 3159 1242 3001 
Q 1428 2844 1947 2747 
L 2328 2669 
Q 3034 2534 3370 2195 
Q 3706 1856 3706 1288 
Q 3706 609 3251 259 
Q 2797 -91 1919 -91 
Q 1588 -91 1214 -16 
Q 841 59 441 206 
L 441 856 
Q 825 641 1194 531 
Q 1563 422 1919 422 
Q 2459 422 2753 634 
Q 3047 847 3047 1241 
Q 3047 1584 2836 1778 
Q 2625 1972 2144 2069 
L 1759 2144 
Q 1053 2284 737 2584 
Q 422 2884 422 3419 
Q 422 4038 858 4394 
Q 1294 4750 2059 4750 
Q 2388 4750 2728 4690 
Q 3069 4631 3425 4513 
z
" transform="scale(0.015625)"/>
      <path id="DejaVuSans-79" d="M 2059 -325 
Q 1816 -950 1584 -1140 
Q 1353 -1331 966 -1331 
L 506 -1331 
L 506 -850 
L 844 -850 
Q 1081 -850 1212 -737 
Q 1344 -625 1503 -206 
L 1606 56 
L 191 3500 
L 800 3500 
L 1894 763 
L 2988 3500 
L 3597 3500 
L 2059 -325 
z
" transform="scale(0.015625)"/>
      <path id="DejaVuSans-6d" d="M 3328 2828 
Q 3544 3216 3844 3400 
Q 4144 3584 4550 3584 
Q 5097 3584 5394 3201 
Q 5691 2819 5691 2113 
L 5691 0 
L 5113 0 
L 5113 2094 
Q 5113 2597 4934 2840 
Q 4756 3084 4391 3084 
Q 3944 3084 3684 2787 
Q 3425 2491 3425 1978 
L 3425 0 
L 2847 0 
L 2847 2094 
Q 2847 2600 2669 2842 
Q 2491 3084 2119 3084 
Q 1678 3084 1418 2786 
Q 1159 2488 1159 1978 
L 1159 0 
L 581 0 
L 581 3500 
L 1159 3500 
L 1159 2956 
Q 1356 3278 1631 3431 
Q 1906 3584 2284 3584 
Q 2666 3584 2933 3390 
Q 3200 3197 3328 2828 
z
" transform="scale(0.015625)"/>
      <path id="DejaVuSans-65" d="M 3597 1894 
L 3597 1613 
L 953 1613 
Q 991 1019 1311 708 
Q 1631 397 2203 397 
Q 2534 397 2845 478 
Q 3156 559 3463 722 
L 3463 178 
Q 3153 47 2828 -22 
Q 2503 -91 2169 -91 
Q 1331 -91 842 396 
Q 353 884 353 1716 
Q 353 2575 817 3079 
Q 1281 3584 2069 3584 
Q 2775 3584 3186 3129 
Q 3597 2675 3597 1894 
z
M 3022 2063 
Q 3016 2534 2758 2815 
Q 2500 3097 2075 3097 
Q 1594 3097 1305 2825 
Q 1016 2553 972 2059 
L 3022 2063 
z
" transform="scale(0.015625)"/>
      <path id="DejaVuSans-74" d="M 1172 4494 
L 1172 3500 
L 2356 3500 
L 2356 3053 
L 1172 3053 
L 1172 1153 
Q 1172 725 1289 603 
Q 1406 481 1766 481 
L 2356 481 
L 2356 0 
L 1766 0 
Q 1100 0 847 248 
Q 594 497 594 1153 
L 594 3053 
L 172 3053 
L 172 3500 
L 594 3500 
L 594 4494 
L 1172 4494 
z
" transform="scale(0.015625)"/>
      <path id="DejaVuSans-72" d="M 2631 2963 
Q 2534 3019 2420 3045 
Q 2306 3072 2169 3072 
Q 1681 3072 1420 2755 
Q 1159 2438 1159 1844 
L 1159 0 
L 581 0 
L 581 3500 
L 1159 3500 
L 1159 2956 
Q 1341 3275 1631 3429 
Q 1922 3584 2338 3584 
Q 2397 3584 2469 3576 
Q 2541 3569 2628 3553 
L 2631 2963 
z
" transform="scale(0.015625)"/>
      <path id="DejaVuSans-69" d="M 603 3500 
L 1178 3500 
L 1178 0 
L 603 0 
L 603 3500 
z
M 603 4863 
L 1178 4863 
L 1178 4134 
L 603 4134 
L 603 4863 
z
" transform="scale(0.015625)"/>
      <path id="DejaVuSans-63" d="M 3122 3366 
L 3122 2828 
Q 2878 2963 2633 3030 
Q 2388 3097 2138 3097 
Q 1578 3097 1268 2742 
Q 959 2388 959 1747 
Q 959 1106 1268 751 
Q 1578 397 2138 397 
Q 2388 397 2633 464 
Q 2878 531 3122 666 
L 3122 134 
Q 2881 22 2623 -34 
Q 2366 -91 2075 -91 
Q 1284 -91 818 406 
Q 353 903 353 1747 
Q 353 2603 823 3093 
Q 1294 3584 2113 3584 
Q 2378 3584 2631 3529 
Q 2884 3475 3122 3366 
z
" transform="scale(0.015625)"/>
      <path id="DejaVuSans-20" transform="scale(0.015625)"/>
      <path id="DejaVuSans-21d2" d="M 4113 1678 
L 4441 2006 
L 4113 2334 
L 366 2334 
L 366 2709 
L 3738 2709 
L 3447 3000 
L 3822 3375 
L 5050 2147 
L 5050 1866 
L 3822 638 
L 3447 1013 
L 3738 1303 
L 366 1303 
L 366 1678 
L 4113 1678 
z
" transform="scale(0.015625)"/>
      <path id="DejaVuSans-6f" d="M 1959 3097 
Q 1497 3097 1228 2736 
Q 959 2375 959 1747 
Q 959 1119 1226 758 
Q 1494 397 1959 397 
Q 2419 397 2687 759 
Q 2956 1122 2956 1747 
Q 2956 2369 2687 2733 
Q 2419 3097 1959 3097 
z
M 1959 3584 
Q 2709 3584 3137 3096 
Q 3566 2609 3566 1747 
Q 3566 888 3137 398 
Q 2709 -91 1959 -91 
Q 1206 -91 779 398 
Q 353 888 353 1747 
Q 353 2609 779 3096 
Q 1206 3584 1959 3584 
z
" transform="scale(0.015625)"/>
      <path id="DejaVuSans-68" d="M 3513 2113 
L 3513 0 
L 2938 0 
L 2938 2094 
Q 2938 2591 2744 2837 
Q 2550 3084 2163 3084 
Q 1697 3084 1428 2787 
Q 1159 2491 1159 1978 
L 1159 0 
L 581 0 
L 581 4863 
L 1159 4863 
L 1159 2956 
Q 1366 3272 1645 3428 
Q 1925 3584 2291 3584 
Q 2894 3584 3203 3211 
Q 3513 2838 3513 2113 
z
" transform="scale(0.015625)"/>
      <path id="DejaVuSans-67" d="M 2906 1791 
Q 2906 2416 2648 2759 
Q 2391 3103 1925 3103 
Q 1463 3103 1205 2759 
Q 947 2416 947 1791 
Q 947 1169 1205 825 
Q 1463 481 1925 481 
Q 2391 481 2648 825 
Q 2906 1169 2906 1791 
z
M 3481 434 
Q 3481 -459 3084 -895 
Q 2688 -1331 1869 -1331 
Q 1566 -1331 1297 -1286 
Q 1028 -1241 775 -1147 
L 775 -588 
Q 1028 -725 1275 -790 
Q 1522 -856 1778 -856 
Q 2344 -856 2625 -561 
Q 2906 -266 2906 331 
L 2906 616 
Q 2728 306 2450 153 
Q 2172 0 1784 0 
Q 1141 0 747 490 
Q 353 981 353 1791 
Q 353 2603 747 3093 
Q 1141 3584 1784 3584 
Q 2172 3584 2450 3431 
Q 2728 3278 2906 2969 
L 2906 3500 
L 3481 3500 
L 3481 434 
z
" transform="scale(0.015625)"/>
      <path id="DejaVuSans-6e" d="M 3513 2113 
L 3513 0 
L 2938 0 
L 2938 2094 
Q 2938 2591 2744 2837 
Q 2550 3084 2163 3084 
Q 1697 3084 1428 2787 
Q 1159 2491 1159 1978 
L 1159 0 
L 581 0 
L 581 3500 
L 1159 3500 
L 1159 2956 
Q 1366 3272 1645 3428 
Q 1925 3584 2291 3584 
Q 2894 3584 3203 3211 
Q 3513 2838 3513 2113 
z
" transform="scale(0.015625)"/>
      <path id="DejaVuSans-61" d="M 2194 1759 
Q 1497 1759 1228 1600 
Q 959 1441 959 1056 
Q 959 750 1161 570 
Q 1363 391 1709 391 
Q 2188 391 2477 730 
Q 2766 1069 2766 1631 
L 2766 1759 
L 2194 1759 
z
M 3341 1997 
L 3341 0 
L 2766 0 
L 2766 531 
Q 2569 213 2275 61 
Q 1981 -91 1556 -91 
Q 1019 -91 701 211 
Q 384 513 384 1019 
Q 384 1609 779 1909 
Q 1175 2209 1959 2209 
L 2766 2209 
L 2766 2266 
Q 2766 2663 2505 2880 
Q 2244 3097 1772 3097 
Q 1472 3097 1187 3025 
Q 903 2953 641 2809 
L 641 3341 
Q 956 3463 1253 3523 
Q 1550 3584 1831 3584 
Q 2591 3584 2966 3190 
Q 3341 2797 3341 1997 
z
" transform="scale(0.015625)"/>
      <path id="DejaVuSans-6c" d="M 603 4863 
L 1178 4863 
L 1178 0 
L 603 0 
L 603 4863 
z
" transform="scale(0.015625)"/>
      <path id="DejaVuSans-76" d="M 191 3500 
L 800 3500 
L 1894 563 
L 2988 3500 
L 3597 3500 
L 2284 0 
L 1503 0 
L 191 3500 
z
" transform="scale(0.015625)"/>
      <path id="DejaVuSans-73" d="M 2834 3397 
L 2834 2853 
Q 2591 2978 2328 3040 
Q 2066 3103 1784 3103 
Q 1356 3103 1142 2972 
Q 928 2841 928 2578 
Q 928 2378 1081 2264 
Q 1234 2150 1697 2047 
L 1894 2003 
Q 2506 1872 2764 1633 
Q 3022 1394 3022 966 
Q 3022 478 2636 193 
Q 2250 -91 1575 -91 
Q 1294 -91 989 -36 
Q 684 19 347 128 
L 347 722 
Q 666 556 975 473 
Q 1284 391 1588 391 
Q 1994 391 2212 530 
Q 2431 669 2431 922 
Q 2431 1156 2273 1281 
Q 2116 1406 1581 1522 
L 1381 1569 
Q 847 1681 609 1914 
Q 372 2147 372 2553 
Q 372 3047 722 3315 
Q 1072 3584 1716 3584 
Q 2034 3584 2315 3537 
Q 2597 3491 2834 3397 
z
" transform="scale(0.015625)"/>
     </defs>
     <use xlink:href="#DejaVuSans-53"/>
     <use xlink:href="#DejaVuSans-79" x="63.476562"/>
     <use xlink:href="#DejaVuSans-6d" x="122.65625"/>
     <use xlink:href="#DejaVuSans-6d" x="220.068359"/>
     <use xlink:href="#DejaVuSans-65" x="317.480469"/>
     <use xlink:href="#DejaVuSans-74" x="379.003906"/>
     <use xlink:href="#DejaVuSans-72" x="418.212891"/>
     <use xlink:href="#DejaVuSans-69" x="459.326172"/>
     <use xlink:href="#DejaVuSans-63" x="487.109375"/>
     <use xlink:href="#DejaVuSans-20" x="542.089844"/>
     <use xlink:href="#DejaVuSans-21d2" x="573.876953"/>
     <use xlink:href="#DejaVuSans-20" x="657.666016"/>
     <use xlink:href="#DejaVuSans-6f" x="689.453125"/>
     <use xlink:href="#DejaVuSans-72" x="750.634766"/>
     <use xlink:href="#DejaVuSans-74" x="791.748047"/>
     <use xlink:href="#DejaVuSans-68" x="830.957031"/>
     <use xlink:href="#DejaVuSans-6f" x="894.335938"/>
     <use xlink:href="#DejaVuSans-67" x="955.517578"/>
     <use xlink:href="#DejaVuSans-6f" x="1018.994141"/>
     <use xlink:href="#DejaVuSans-6e" x="1080.175781"/>
     <use xlink:href="#DejaVuSans-61" x="1143.554688"/>
     <use xlink:href="#DejaVuSans-6c" x="1204.833984"/>
     <use xlink:href="#DejaVuSans-20" x="1232.617188"/>
     <use xlink:href="#DejaVuSans-65" x="1264.404297"/>
     <use xlink:href="#DejaVuSans-69" x="1325.927734"/>
     <use xlink:href="#DejaVuSans-67" x="1353.710938"/>
     <use xlink:href="#DejaVuSans-65" x="1417.1875"/>
     <use xlink:href="#DejaVuSans-6e" x="1478.710938"/>
     <use xlink:href="#DejaVuSans-76" x="1542.089844"/>
     <use xlink:href="#DejaVuSans-65" x="1601.269531"/>
     <use xlink:href="#DejaVuSans-63" x="1662.792969"/>
     <use xlink:href="#DejaVuSans-74" x="1717.773438"/>
     <use xlink:href="#DejaVuSans-6f" x="1756.982422"/>
     <use xlink:href="#DejaVuSans-72" x="1818.164062"/>
     <use xlink:href="#DejaVuSans-73" x="1859.277344"/>
    </g>
   </g>
   <g id="legend_1">
    <g id="line2d_23">
     <path d="M 245.063019 277.518338 
L 255.063019 277.518338 
L 265.063019 277.518338 
" style="fill: none; stroke: #242b52; stroke-width: 1.4; stroke-linecap: square"/>
    </g>
    <g id="text_16">
     <!-- unit circle -->
     <g style="fill: #e6e9f5" transform="translate(273.063019 281.018338) scale(0.1 -0.1)">
      <defs>
       <path id="DejaVuSans-75" d="M 544 1381 
L 544 3500 
L 1119 3500 
L 1119 1403 
Q 1119 906 1312 657 
Q 1506 409 1894 409 
Q 2359 409 2629 706 
Q 2900 1003 2900 1516 
L 2900 3500 
L 3475 3500 
L 3475 0 
L 2900 0 
L 2900 538 
Q 2691 219 2414 64 
Q 2138 -91 1772 -91 
Q 1169 -91 856 284 
Q 544 659 544 1381 
z
M 1991 3584 
L 1991 3584 
z
" transform="scale(0.015625)"/>
      </defs>
      <use xlink:href="#DejaVuSans-75"/>
      <use xlink:href="#DejaVuSans-6e" x="63.378906"/>
      <use xlink:href="#DejaVuSans-69" x="126.757812"/>
      <use xlink:href="#DejaVuSans-74" x="154.541016"/>
      <use xlink:href="#DejaVuSans-20" x="193.75"/>
      <use xlink:href="#DejaVuSans-63" x="225.537109"/>
      <use xlink:href="#DejaVuSans-69" x="280.517578"/>
      <use xlink:href="#DejaVuSans-72" x="308.300781"/>
      <use xlink:href="#DejaVuSans-63" x="347.164062"/>
      <use xlink:href="#DejaVuSans-6c" x="402.144531"/>
      <use xlink:href="#DejaVuSans-65" x="429.927734"/>
     </g>
    </g>
    <g id="line2d_24">
     <path d="M 245.063019 292.196463 
L 255.063019 292.196463 
L 265.063019 292.196463 
" style="fill: none; stroke: #e0af68; stroke-width: 2; stroke-linecap: square"/>
    </g>
    <g id="text_17">
     <!-- $A\,\cdot$ circle -->
     <g style="fill: #e6e9f5" transform="translate(273.063019 295.696463) scale(0.1 -0.1)">
      <defs>
       <path id="DejaVuSans-Oblique-41" d="M 2356 4666 
L 3072 4666 
L 3938 0 
L 3278 0 
L 3084 1197 
L 984 1197 
L 325 0 
L -341 0 
L 2356 4666 
z
M 2584 4044 
L 1275 1722 
L 2988 1722 
L 2584 4044 
z
" transform="scale(0.015625)"/>
       <path id="DejaVuSans-22c5" d="M 684 2619 
L 1344 2619 
L 1344 1825 
L 684 1825 
L 684 2619 
z
" transform="scale(0.015625)"/>
      </defs>
      <use xlink:href="#DejaVuSans-Oblique-41" transform="translate(0 0.015625)"/>
      <use xlink:href="#DejaVuSans-22c5" transform="translate(104.126301 0.015625)"/>
      <use xlink:href="#DejaVuSans-20" transform="translate(155.395833 0.015625)"/>
      <use xlink:href="#DejaVuSans-63" transform="translate(187.182942 0.015625)"/>
      <use xlink:href="#DejaVuSans-69" transform="translate(242.163411 0.015625)"/>
      <use xlink:href="#DejaVuSans-72" transform="translate(269.946614 0.015625)"/>
      <use xlink:href="#DejaVuSans-63" transform="translate(311.059895 0.015625)"/>
      <use xlink:href="#DejaVuSans-6c" transform="translate(366.040364 0.015625)"/>
      <use xlink:href="#DejaVuSans-65" transform="translate(393.823567 0.015625)"/>
     </g>
    </g>
   </g>
  </g>
 </g>
 <defs>
  <clipPath id="pc962806ac7">
   <rect x="47.504375" y="23.077969" width="283.702394" height="283.698182"/>
  </clipPath>
 </defs>
</svg>
