<?xml version="1.0" encoding="utf-8" standalone="no"?>
<!DOCTYPE svg PUBLIC "-//W3C//DTD SVG 1.1//EN"
  "http://www.w3.org/Graphics/SVG/1.1/DTD/svg11.dtd">
<svg xmlns:xlink="http://www.w3.org/1999/xlink" width="477.760398pt" height="286.637173pt" viewBox="0 0 477.760398 286.637173" xmlns="http://www.w3.org/2000/svg" version="1.1">
 <metadata>
  <rdf:RDF xmlns:dc="http://purl.org/dc/elements/1.1/" xmlns:cc="http://creativecommons.org/ns#" xmlns:rdf="http://www.w3.org/1999/02/22-rdf-syntax-ns#">
   <cc:Work>
    <dc:type rdf:resource="http://purl.org/dc/dcmitype/StillImage"/>
    <dc:format>image/svg+xml</dc:format>
    <dc:creator>
     <cc:Agent>
      <dc:title>Matplotlib v3.9.4, https://matplotlib.org/</dc:title>
     </cc:Agent>
    </dc:creator>
   </cc:Work>
  </rdf:RDF>
 </metadata>
 <defs>
  <style type="text/css">*{stroke-linejoin: round; stroke-linecap: butt}</style>
 </defs>
 <g id="figure_1">
  <g id="patch_1">
   <path d="M 0 286.637173 
L 477.760398 286.637173 
L 477.760398 0 
L 0 0 
L 0 286.637173 
z
" style="fill: none"/>
  </g>
  <g id="axes_1">
   <g id="patch_2">
    <path d="M 58.953125 245.183423 
L 470.560398 245.183423 
L 470.560398 23.077969 
L 58.953125 23.077969 
L 58.953125 245.183423 
z
" style="fill: none"/>
   </g>
   <g id="matplotlib.axis_1">
    <g id="xtick_1">
     <g id="line2d_1">
      <path d="M 77.662546 245.183423 
L 77.662546 23.077969 
" clip-path="url(#pcd00b6d084)" style="fill: none; stroke: #242b52; stroke-opacity: 0.7; stroke-width: 0.8; stroke-linecap: square"/>
     </g>
     <g id="line2d_2">
      <defs>
       <path id="ma0df52fa23" d="M 0 0 
L 0 3.5 
" style="stroke: #9aa3c7; stroke-width: 0.8"/>
      </defs>
      <g>
       <use xlink:href="#ma0df52fa23" x="77.662546" y="245.183423" style="fill: #9aa3c7; stroke: #9aa3c7; stroke-width: 0.8"/>
      </g>
     </g>
     <g id="text_1">
      <!-- $\mathdefault{10^{-2}}$ -->
      <g style="fill: #9aa3c7" transform="translate(63.562546 261.301548) scale(0.12 -0.12)">
       <defs>
        <path id="DejaVuSans-31" d="M 794 531 
L 1825 531 
L 1825 4091 
L 703 3866 
L 703 4441 
L 1819 4666 
L 2450 4666 
L 2450 531 
L 3481 531 
L 3481 0 
L 794 0 
L 794 531 
z
" transform="scale(0.015625)"/>
        <path id="DejaVuSans-30" d="M 2034 4250 
Q 1547 4250 1301 3770 
Q 1056 3291 1056 2328 
Q 1056 1369 1301 889 
Q 1547 409 2034 409 
Q 2525 409 2770 889 
Q 3016 1369 3016 2328 
Q 3016 3291 2770 3770 
Q 2525 4250 2034 4250 
z
M 2034 4750 
Q 2819 4750 3233 4129 
Q 3647 3509 3647 2328 
Q 3647 1150 3233 529 
Q 2819 -91 2034 -91 
Q 1250 -91 836 529 
Q 422 1150 422 2328 
Q 422 3509 836 4129 
Q 1250 4750 2034 4750 
z
" transform="scale(0.015625)"/>
        <path id="DejaVuSans-2212" d="M 678 2272 
L 4684 2272 
L 4684 1741 
L 678 1741 
L 678 2272 
z
" transform="scale(0.015625)"/>
        <path id="DejaVuSans-32" d="M 1228 531 
L 3431 531 
L 3431 0 
L 469 0 
L 469 531 
Q 828 903 1448 1529 
Q 2069 2156 2228 2338 
Q 2531 2678 2651 2914 
Q 2772 3150 2772 3378 
Q 2772 3750 2511 3984 
Q 2250 4219 1831 4219 
Q 1534 4219 1204 4116 
Q 875 4013 500 3803 
L 500 4441 
Q 881 4594 1212 4672 
Q 1544 4750 1819 4750 
Q 2544 4750 2975 4387 
Q 3406 4025 3406 3419 
Q 3406 3131 3298 2873 
Q 3191 2616 2906 2266 
Q 2828 2175 2409 1742 
Q 1991 1309 1228 531 
z
" transform="scale(0.015625)"/>
       </defs>
       <use xlink:href="#DejaVuSans-31" transform="translate(0 0.765625)"/>
       <use xlink:href="#DejaVuSans-30" transform="translate(63.623047 0.765625)"/>
       <use xlink:href="#DejaVuSans-2212" transform="translate(128.203125 39.046875) scale(0.7)"/>
       <use xlink:href="#DejaVuSans-32" transform="translate(186.855469 39.046875) scale(0.7)"/>
      </g>
     </g>
    </g>
    <g id="xtick_2">
     <g id="line2d_3">
      <path d="M 152.500232 245.183423 
L 152.500232 23.077969 
" clip-path="url(#pcd00b6d084)" style="fill: none; stroke: #242b52; stroke-opacity: 0.7; stroke-width: 0.8; stroke-linecap: square"/>
     </g>
     <g id="line2d_4">
      <g>
       <use xlink:href="#ma0df52fa23" x="152.500232" y="245.183423" style="fill: #9aa3c7; stroke: #9aa3c7; stroke-width: 0.8"/>
      </g>
     </g>
     <g id="text_2">
      <!-- $\mathdefault{10^{-1}}$ -->
      <g style="fill: #9aa3c7" transform="translate(138.400232 261.301548) scale(0.12 -0.12)">
       <use xlink:href="#DejaVuSans-31" transform="translate(0 0.684375)"/>
       <use xlink:href="#DejaVuSans-30" transform="translate(63.623047 0.684375)"/>
       <use xlink:href="#DejaVuSans-2212" transform="translate(128.203125 38.965625) scale(0.7)"/>
       <use xlink:href="#DejaVuSans-31" transform="translate(186.855469 38.965625) scale(0.7)"/>
      </g>
     </g>
    </g>
    <g id="xtick_3">
     <g id="line2d_5">
      <path d="M 227.337918 245.183423 
L 227.337918 23.077969 
" clip-path="url(#pcd00b6d084)" style="fill: none; stroke: #242b52; stroke-opacity: 0.7; stroke-width: 0.8; stroke-linecap: square"/>
     </g>
     <g id="line2d_6">
      <g>
       <use xlink:href="#ma0df52fa23" x="227.337918" y="245.183423" style="fill: #9aa3c7; stroke: #9aa3c7; stroke-width: 0.8"/>
      </g>
     </g>
     <g id="text_3">
      <!-- $\mathdefault{10^{0}}$ -->
      <g style="fill: #9aa3c7" transform="translate(216.777918 261.301548) scale(0.12 -0.12)">
       <use xlink:href="#DejaVuSans-31" transform="translate(0 0.765625)"/>
       <use xlink:href="#DejaVuSans-30" transform="translate(63.623047 0.765625)"/>
       <use xlink:href="#DejaVuSans-30" transform="translate(128.203125 39.046875) scale(0.7)"/>
      </g>
     </g>
    </g>
    <g id="xtick_4">
     <g id="line2d_7">
      <path d="M 302.175604 245.183423 
L 302.175604 23.077969 
" clip-path="url(#pcd00b6d084)" style="fill: none; stroke: #242b52; stroke-opacity: 0.7; stroke-width: 0.8; stroke-linecap: square"/>
     </g>
     <g id="line2d_8">
      <g>
       <use xlink:href="#ma0df52fa23" x="302.175604" y="245.183423" style="fill: #9aa3c7; stroke: #9aa3c7; stroke-width: 0.8"/>
      </g>
     </g>
     <g id="text_4">
      <!-- $\mathdefault{10^{1}}$ -->
      <g style="fill: #9aa3c7" transform="translate(291.615604 261.301548) scale(0.12 -0.12)">
       <use xlink:href="#DejaVuSans-31" transform="translate(0 0.684375)"/>
       <use xlink:href="#DejaVuSans-30" transform="translate(63.623047 0.684375)"/>
       <use xlink:href="#DejaVuSans-31" transform="translate(128.203125 38.965625) scale(0.7)"/>
      </g>
     </g>
    </g>
    <g id="xtick_5">
     <g id="line2d_9">
      <path d="M 377.01329 245.183423 
L 377.01329 23.077969 
" clip-path="url(#pcd00b6d084)" style="fill: none; stroke: #242b52; stroke-opacity: 0.7; stroke-width: 0.8; stroke-linecap: square"/>
     </g>
     <g id="line2d_10">
      <g>
       <use xlink:href="#ma0df52fa23" x="377.01329" y="245.183423" style="fill: #9aa3c7; stroke: #9aa3c7; stroke-width: 0.8"/>
      </g>
     </g>
     <g id="text_5">
      <!-- $\mathdefault{10^{2}}$ -->
      <g style="fill: #9aa3c7" transform="translate(366.45329 261.301548) scale(0.12 -0.12)">
       <use xlink:href="#DejaVuSans-31" transform="translate(0 0.765625)"/>
       <use xlink:href="#DejaVuSans-30" transform="translate(63.623047 0.765625)"/>
       <use xlink:href="#DejaVuSans-32" transform="translate(128.203125 39.046875) scale(0.7)"/>
      </g>
     </g>
    </g>
    <g id="xtick_6">
     <g id="line2d_11">
      <path d="M 451.850976 245.183423 
L 451.850976 23.077969 
" clip-path="url(#pcd00b6d084)" style="fill: none; stroke: #242b52; stroke-opacity: 0.7; stroke-width: 0.8; stroke-linecap: square"/>
     </g>
     <g id="line2d_12">
      <g>
       <use xlink:href="#ma0df52fa23" x="451.850976" y="245.183423" style="fill: #9aa3c7; stroke: #9aa3c7; stroke-width: 0.8"/>
      </g>
     </g>
     <g id="text_6">
      <!-- $\mathdefault{10^{3}}$ -->
      <g style="fill: #9aa3c7" transform="translate(441.290976 261.301548) scale(0.12 -0.12)">
       <defs>
        <path id="DejaVuSans-33" d="M 2597 2516 
Q 3050 2419 3304 2112 
Q 3559 1806 3559 1356 
Q 3559 666 3084 287 
Q 2609 -91 1734 -91 
Q 1441 -91 1130 -33 
Q 819 25 488 141 
L 488 750 
Q 750 597 1062 519 
Q 1375 441 1716 441 
Q 2309 441 2620 675 
Q 2931 909 2931 1356 
Q 2931 1769 2642 2001 
Q 2353 2234 1838 2234 
L 1294 2234 
L 1294 2753 
L 1863 2753 
Q 2328 2753 2575 2939 
Q 2822 3125 2822 3475 
Q 2822 3834 2567 4026 
Q 2313 4219 1838 4219 
Q 1578 4219 1281 4162 
Q 984 4106 628 3988 
L 628 4550 
Q 988 4650 1302 4700 
Q 1616 4750 1894 4750 
Q 2613 4750 3031 4423 
Q 3450 4097 3450 3541 
Q 3450 3153 3228 2886 
Q 3006 2619 2597 2516 
z
" transform="scale(0.015625)"/>
       </defs>
       <use xlink:href="#DejaVuSans-31" transform="translate(0 0.765625)"/>
       <use xlink:href="#DejaVuSans-30" transform="translate(63.623047 0.765625)"/>
       <use xlink:href="#DejaVuSans-33" transform="translate(128.203125 39.046875) scale(0.7)"/>
      </g>
     </g>
    </g>
    <g id="xtick_7">
     <g id="line2d_13">
      <defs>
       <path id="m41b8f888d0" d="M 0 0 
L 0 2 
" style="stroke: #9aa3c7; stroke-width: 0.6"/>
      </defs>
      <g>
       <use xlink:href="#m41b8f888d0" x="61.059899" y="245.183423" style="fill: #9aa3c7; stroke: #9aa3c7; stroke-width: 0.6"/>
      </g>
     </g>
    </g>
    <g id="xtick_8">
     <g id="line2d_14">
      <g>
       <use xlink:href="#m41b8f888d0" x="66.070042" y="245.183423" style="fill: #9aa3c7; stroke: #9aa3c7; stroke-width: 0.6"/>
      </g>
     </g>
    </g>
    <g id="xtick_9">
     <g id="line2d_15">
      <g>
       <use xlink:href="#m41b8f888d0" x="70.410025" y="245.183423" style="fill: #9aa3c7; stroke: #9aa3c7; stroke-width: 0.6"/>
      </g>
     </g>
    </g>
    <g id="xtick_10">
     <g id="line2d_16">
      <g>
       <use xlink:href="#m41b8f888d0" x="74.238162" y="245.183423" style="fill: #9aa3c7; stroke: #9aa3c7; stroke-width: 0.6"/>
      </g>
     </g>
    </g>
    <g id="xtick_11">
     <g id="line2d_17">
      <g>
       <use xlink:href="#m41b8f888d0" x="100.190935" y="245.183423" style="fill: #9aa3c7; stroke: #9aa3c7; stroke-width: 0.6"/>
      </g>
     </g>
    </g>
    <g id="xtick_12">
     <g id="line2d_18">
      <g>
       <use xlink:href="#m41b8f888d0" x="113.369197" y="245.183423" style="fill: #9aa3c7; stroke: #9aa3c7; stroke-width: 0.6"/>
      </g>
     </g>
    </g>
    <g id="xtick_13">
     <g id="line2d_19">
      <g>
       <use xlink:href="#m41b8f888d0" x="122.719323" y="245.183423" style="fill: #9aa3c7; stroke: #9aa3c7; stroke-width: 0.6"/>
      </g>
     </g>
    </g>
    <g id="xtick_14">
     <g id="line2d_20">
      <g>
       <use xlink:href="#m41b8f888d0" x="129.971844" y="245.183423" style="fill: #9aa3c7; stroke: #9aa3c7; stroke-width: 0.6"/>
      </g>
     </g>
    </g>
    <g id="xtick_15">
     <g id="line2d_21">
      <g>
       <use xlink:href="#m41b8f888d0" x="135.897585" y="245.183423" style="fill: #9aa3c7; stroke: #9aa3c7; stroke-width: 0.6"/>
      </g>
     </g>
    </g>
    <g id="xtick_16">
     <g id="line2d_22">
      <g>
       <use xlink:href="#m41b8f888d0" x="140.907728" y="245.183423" style="fill: #9aa3c7; stroke: #9aa3c7; stroke-width: 0.6"/>
      </g>
     </g>
    </g>
    <g id="xtick_17">
     <g id="line2d_23">
      <g>
       <use xlink:href="#m41b8f888d0" x="145.247711" y="245.183423" style="fill: #9aa3c7; stroke: #9aa3c7; stroke-width: 0.6"/>
      </g>
     </g>
    </g>
    <g id="xtick_18">
     <g id="line2d_24">
      <g>
       <use xlink:href="#m41b8f888d0" x="149.075848" y="245.183423" style="fill: #9aa3c7; stroke: #9aa3c7; stroke-width: 0.6"/>
      </g>
     </g>
    </g>
    <g id="xtick_19">
     <g id="line2d_25">
      <g>
       <use xlink:href="#m41b8f888d0" x="175.028621" y="245.183423" style="fill: #9aa3c7; stroke: #9aa3c7; stroke-width: 0.6"/>
      </g>
     </g>
    </g>
    <g id="xtick_20">
     <g id="line2d_26">
      <g>
       <use xlink:href="#m41b8f888d0" x="188.206883" y="245.183423" style="fill: #9aa3c7; stroke: #9aa3c7; stroke-width: 0.6"/>
      </g>
     </g>
    </g>
    <g id="xtick_21">
     <g id="line2d_27">
      <g>
       <use xlink:href="#m41b8f888d0" x="197.557009" y="245.183423" style="fill: #9aa3c7; stroke: #9aa3c7; stroke-width: 0.6"/>
      </g>
     </g>
    </g>
    <g id="xtick_22">
     <g id="line2d_28">
      <g>
       <use xlink:href="#m41b8f888d0" x="204.80953" y="245.183423" style="fill: #9aa3c7; stroke: #9aa3c7; stroke-width: 0.6"/>
      </g>
     </g>
    </g>
    <g id="xtick_23">
     <g id="line2d_29">
      <g>
       <use xlink:href="#m41b8f888d0" x="210.735271" y="245.183423" style="fill: #9aa3c7; stroke: #9aa3c7; stroke-width: 0.6"/>
      </g>
     </g>
    </g>
    <g id="xtick_24">
     <g id="line2d_30">
      <g>
       <use xlink:href="#m41b8f888d0" x="215.745414" y="245.183423" style="fill: #9aa3c7; stroke: #9aa3c7; stroke-width: 0.6"/>
      </g>
     </g>
    </g>
    <g id="xtick_25">
     <g id="line2d_31">
      <g>
       <use xlink:href="#m41b8f888d0" x="220.085397" y="245.183423" style="fill: #9aa3c7; stroke: #9aa3c7; stroke-width: 0.6"/>
      </g>
     </g>
    </g>
    <g id="xtick_26">
     <g id="line2d_32">
      <g>
       <use xlink:href="#m41b8f888d0" x="223.913534" y="245.183423" style="fill: #9aa3c7; stroke: #9aa3c7; stroke-width: 0.6"/>
      </g>
     </g>
    </g>
    <g id="xtick_27">
     <g id="line2d_33">
      <g>
       <use xlink:href="#m41b8f888d0" x="249.866307" y="245.183423" style="fill: #9aa3c7; stroke: #9aa3c7; stroke-width: 0.6"/>
      </g>
     </g>
    </g>
    <g id="xtick_28">
     <g id="line2d_34">
      <g>
       <use xlink:href="#m41b8f888d0" x="263.044569" y="245.183423" style="fill: #9aa3c7; stroke: #9aa3c7; stroke-width: 0.6"/>
      </g>
     </g>
    </g>
    <g id="xtick_29">
     <g id="line2d_35">
      <g>
       <use xlink:href="#m41b8f888d0" x="272.394695" y="245.183423" style="fill: #9aa3c7; stroke: #9aa3c7; stroke-width: 0.6"/>
      </g>
     </g>
    </g>
    <g id="xtick_30">
     <g id="line2d_36">
      <g>
       <use xlink:href="#m41b8f888d0" x="279.647216" y="245.183423" style="fill: #9aa3c7; stroke: #9aa3c7; stroke-width: 0.6"/>
      </g>
     </g>
    </g>
    <g id="xtick_31">
     <g id="line2d_37">
      <g>
       <use xlink:href="#m41b8f888d0" x="285.572957" y="245.183423" style="fill: #9aa3c7; stroke: #9aa3c7; stroke-width: 0.6"/>
      </g>
     </g>
    </g>
    <g id="xtick_32">
     <g id="line2d_38">
      <g>
       <use xlink:href="#m41b8f888d0" x="290.5831" y="245.183423" style="fill: #9aa3c7; stroke: #9aa3c7; stroke-width: 0.6"/>
      </g>
     </g>
    </g>
    <g id="xtick_33">
     <g id="line2d_39">
      <g>
       <use xlink:href="#m41b8f888d0" x="294.923083" y="245.183423" style="fill: #9aa3c7; stroke: #9aa3c7; stroke-width: 0.6"/>
      </g>
     </g>
    </g>
    <g id="xtick_34">
     <g id="line2d_40">
      <g>
       <use xlink:href="#m41b8f888d0" x="298.75122" y="245.183423" style="fill: #9aa3c7; stroke: #9aa3c7; stroke-width: 0.6"/>
      </g>
     </g>
    </g>
    <g id="xtick_35">
     <g id="line2d_41">
      <g>
       <use xlink:href="#m41b8f888d0" x="324.703993" y="245.183423" style="fill: #9aa3c7; stroke: #9aa3c7; stroke-width: 0.6"/>
      </g>
     </g>
    </g>
    <g id="xtick_36">
     <g id="line2d_42">
      <g>
       <use xlink:href="#m41b8f888d0" x="337.882255" y="245.183423" style="fill: #9aa3c7; stroke: #9aa3c7; stroke-width: 0.6"/>
      </g>
     </g>
    </g>
    <g id="xtick_37">
     <g id="line2d_43">
      <g>
       <use xlink:href="#m41b8f888d0" x="347.232381" y="245.183423" style="fill: #9aa3c7; stroke: #9aa3c7; stroke-width: 0.6"/>
      </g>
     </g>
    </g>
    <g id="xtick_38">
     <g id="line2d_44">
      <g>
       <use xlink:href="#m41b8f888d0" x="354.484902" y="245.183423" style="fill: #9aa3c7; stroke: #9aa3c7; stroke-width: 0.6"/>
      </g>
     </g>
    </g>
    <g id="xtick_39">
     <g id="line2d_45">
      <g>
       <use xlink:href="#m41b8f888d0" x="360.410643" y="245.183423" style="fill: #9aa3c7; stroke: #9aa3c7; stroke-width: 0.6"/>
      </g>
     </g>
    </g>
    <g id="xtick_40">
     <g id="line2d_46">
      <g>
       <use xlink:href="#m41b8f888d0" x="365.420786" y="245.183423" style="fill: #9aa3c7; stroke: #9aa3c7; stroke-width: 0.6"/>
      </g>
     </g>
    </g>
    <g id="xtick_41">
     <g id="line2d_47">
      <g>
       <use xlink:href="#m41b8f888d0" x="369.760769" y="245.183423" style="fill: #9aa3c7; stroke: #9aa3c7; stroke-width: 0.6"/>
      </g>
     </g>
    </g>
    <g id="xtick_42">
     <g id="line2d_48">
      <g>
       <use xlink:href="#m41b8f888d0" x="373.588906" y="245.183423" style="fill: #9aa3c7; stroke: #9aa3c7; stroke-width: 0.6"/>
      </g>
     </g>
    </g>
    <g id="xtick_43">
     <g id="line2d_49">
      <g>
       <use xlink:href="#m41b8f888d0" x="399.541679" y="245.183423" style="fill: #9aa3c7; stroke: #9aa3c7; stroke-width: 0.6"/>
      </g>
     </g>
    </g>
    <g id="xtick_44">
     <g id="line2d_50">
      <g>
       <use xlink:href="#m41b8f888d0" x="412.719941" y="245.183423" style="fill: #9aa3c7; stroke: #9aa3c7; stroke-width: 0.6"/>
      </g>
     </g>
    </g>
    <g id="xtick_45">
     <g id="line2d_51">
      <g>
       <use xlink:href="#m41b8f888d0" x="422.070067" y="245.183423" style="fill: #9aa3c7; stroke: #9aa3c7; stroke-width: 0.6"/>
      </g>
     </g>
    </g>
    <g id="xtick_46">
     <g id="line2d_52">
      <g>
       <use xlink:href="#m41b8f888d0" x="429.322588" y="245.183423" style="fill: #9aa3c7; stroke: #9aa3c7; stroke-width: 0.6"/>
      </g>
     </g>
    </g>
    <g id="xtick_47">
     <g id="line2d_53">
      <g>
       <use xlink:href="#m41b8f888d0" x="435.248329" y="245.183423" style="fill: #9aa3c7; stroke: #9aa3c7; stroke-width: 0.6"/>
      </g>
     </g>
    </g>
    <g id="xtick_48">
     <g id="line2d_54">
      <g>
       <use xlink:href="#m41b8f888d0" x="440.258472" y="245.183423" style="fill: #9aa3c7; stroke: #9aa3c7; stroke-width: 0.6"/>
      </g>
     </g>
    </g>
    <g id="xtick_49">
     <g id="line2d_55">
      <g>
       <use xlink:href="#m41b8f888d0" x="444.598455" y="245.183423" style="fill: #9aa3c7; stroke: #9aa3c7; stroke-width: 0.6"/>
      </g>
     </g>
    </g>
    <g id="xtick_50">
     <g id="line2d_56">
      <g>
       <use xlink:href="#m41b8f888d0" x="448.426592" y="245.183423" style="fill: #9aa3c7; stroke: #9aa3c7; stroke-width: 0.6"/>
      </g>
     </g>
    </g>
    <g id="text_7">
     <!-- regularization $\lambda$ -->
     <g style="fill: #9aa3c7" transform="translate(217.716761 276.917173) scale(0.12 -0.12)">
      <defs>
       <path id="DejaVuSans-72" d="M 2631 2963 
Q 2534 3019 2420 3045 
Q 2306 3072 2169 3072 
Q 1681 3072 1420 2755 
Q 1159 2438 1159 1844 
L 1159 0 
L 581 0 
L 581 3500 
L 1159 3500 
L 1159 2956 
Q 1341 3275 1631 3429 
Q 1922 3584 2338 3584 
Q 2397 3584 2469 3576 
Q 2541 3569 2628 3553 
L 2631 2963 
z
" transform="scale(0.015625)"/>
       <path id="DejaVuSans-65" d="M 3597 1894 
L 3597 1613 
L 953 1613 
Q 991 1019 1311 708 
Q 1631 397 2203 397 
Q 2534 397 2845 478 
Q 3156 559 3463 722 
L 3463 178 
Q 3153 47 2828 -22 
Q 2503 -91 2169 -91 
Q 1331 -91 842 396 
Q 353 884 353 1716 
Q 353 2575 817 3079 
Q 1281 3584 2069 3584 
Q 2775 3584 3186 3129 
Q 3597 2675 3597 1894 
z
M 3022 2063 
Q 3016 2534 2758 2815 
Q 2500 3097 2075 3097 
Q 1594 3097 1305 2825 
Q 1016 2553 972 2059 
L 3022 2063 
z
" transform="scale(0.015625)"/>
       <path id="DejaVuSans-67" d="M 2906 1791 
Q 2906 2416 2648 2759 
Q 2391 3103 1925 3103 
Q 1463 3103 1205 2759 
Q 947 2416 947 1791 
Q 947 1169 1205 825 
Q 1463 481 1925 481 
Q 2391 481 2648 825 
Q 2906 1169 2906 1791 
z
M 3481 434 
Q 3481 -459 3084 -895 
Q 2688 -1331 1869 -1331 
Q 1566 -1331 1297 -1286 
Q 1028 -1241 775 -1147 
L 775 -588 
Q 1028 -725 1275 -790 
Q 1522 -856 1778 -856 
Q 2344 -856 2625 -561 
Q 2906 -266 2906 331 
L 2906 616 
Q 2728 306 2450 153 
Q 2172 0 1784 0 
Q 1141 0 747 490 
Q 353 981 353 1791 
Q 353 2603 747 3093 
Q 1141 3584 1784 3584 
Q 2172 3584 2450 3431 
Q 2728 3278 2906 2969 
L 2906 3500 
L 3481 3500 
L 3481 434 
z
" transform="scale(0.015625)"/>
       <path id="DejaVuSans-75" d="M 544 1381 
L 544 3500 
L 1119 3500 
L 1119 1403 
Q 1119 906 1312 657 
Q 1506 409 1894 409 
Q 2359 409 2629 706 
Q 2900 1003 2900 1516 
L 2900 3500 
L 3475 3500 
L 3475 0 
L 2900 0 
L 2900 538 
Q 2691 219 2414 64 
Q 2138 -91 1772 -91 
Q 1169 -91 856 284 
Q 544 659 544 1381 
z
M 1991 3584 
L 1991 3584 
z
" transform="scale(0.015625)"/>
       <path id="DejaVuSans-6c" d="M 603 4863 
L 1178 4863 
L 1178 0 
L 603 0 
L 603 4863 
z
" transform="scale(0.015625)"/>
       <path id="DejaVuSans-61" d="M 2194 1759 
Q 1497 1759 1228 1600 
Q 959 1441 959 1056 
Q 959 750 1161 570 
Q 1363 391 1709 391 
Q 2188 391 2477 730 
Q 2766 1069 2766 1631 
L 2766 1759 
L 2194 1759 
z
M 3341 1997 
L 3341 0 
L 2766 0 
L 2766 531 
Q 2569 213 2275 61 
Q 1981 -91 1556 -91 
Q 1019 -91 701 211 
Q 384 513 384 1019 
Q 384 1609 779 1909 
Q 1175 2209 1959 2209 
L 2766 2209 
L 2766 2266 
Q 2766 2663 2505 2880 
Q 2244 3097 1772 3097 
Q 1472 3097 1187 3025 
Q 903 2953 641 2809 
L 641 3341 
Q 956 3463 1253 3523 
Q 1550 3584 1831 3584 
Q 2591 3584 2966 3190 
Q 3341 2797 3341 1997 
z
" transform="scale(0.015625)"/>
       <path id="DejaVuSans-69" d="M 603 3500 
L 1178 3500 
L 1178 0 
L 603 0 
L 603 3500 
z
M 603 4863 
L 1178 4863 
L 1178 4134 
L 603 4134 
L 603 4863 
z
" transform="scale(0.015625)"/>
       <path id="DejaVuSans-7a" d="M 353 3500 
L 3084 3500 
L 3084 2975 
L 922 459 
L 3084 459 
L 3084 0 
L 275 0 
L 275 525 
L 2438 3041 
L 353 3041 
L 353 3500 
z
" transform="scale(0.015625)"/>
       <path id="DejaVuSans-74" d="M 1172 4494 
L 1172 3500 
L 2356 3500 
L 2356 3053 
L 1172 3053 
L 1172 1153 
Q 1172 725 1289 603 
Q 1406 481 1766 481 
L 2356 481 
L 2356 0 
L 1766 0 
Q 1100 0 847 248 
Q 594 497 594 1153 
L 594 3053 
L 172 3053 
L 172 3500 
L 594 3500 
L 594 4494 
L 1172 4494 
z
" transform="scale(0.015625)"/>
       <path id="DejaVuSans-6f" d="M 1959 3097 
Q 1497 3097 1228 2736 
Q 959 2375 959 1747 
Q 959 1119 1226 758 
Q 1494 397 1959 397 
Q 2419 397 2687 759 
Q 2956 1122 2956 1747 
Q 2956 2369 2687 2733 
Q 2419 3097 1959 3097 
z
M 1959 3584 
Q 2709 3584 3137 3096 
Q 3566 2609 3566 1747 
Q 3566 888 3137 398 
Q 2709 -91 1959 -91 
Q 1206 -91 779 398 
Q 353 888 353 1747 
Q 353 2609 779 3096 
Q 1206 3584 1959 3584 
z
" transform="scale(0.015625)"/>
       <path id="DejaVuSans-6e" d="M 3513 2113 
L 3513 0 
L 2938 0 
L 2938 2094 
Q 2938 2591 2744 2837 
Q 2550 3084 2163 3084 
Q 1697 3084 1428 2787 
Q 1159 2491 1159 1978 
L 1159 0 
L 581 0 
L 581 3500 
L 1159 3500 
L 1159 2956 
Q 1366 3272 1645 3428 
Q 1925 3584 2291 3584 
Q 2894 3584 3203 3211 
Q 3513 2838 3513 2113 
z
" transform="scale(0.015625)"/>
       <path id="DejaVuSans-20" transform="scale(0.015625)"/>
       <path id="DejaVuSans-Oblique-3bb" d="M 2350 4316 
L 3125 0 
L 2516 0 
L 2038 2588 
L 328 0 
L -281 0 
L 1903 3356 
L 1794 3975 
Q 1725 4369 1391 4369 
L 1091 4369 
L 1184 4863 
L 1550 4856 
Q 2253 4847 2350 4316 
z
" transform="scale(0.015625)"/>
      </defs>
      <use xlink:href="#DejaVuSans-72" transform="translate(0 0.015625)"/>
      <use xlink:href="#DejaVuSans-65" transform="translate(41.113281 0.015625)"/>
      <use xlink:href="#DejaVuSans-67" transform="translate(102.636719 0.015625)"/>
      <use xlink:href="#DejaVuSans-75" transform="translate(166.113281 0.015625)"/>
      <use xlink:href="#DejaVuSans-6c" transform="translate(229.492188 0.015625)"/>
      <use xlink:href="#DejaVuSans-61" transform="translate(257.275391 0.015625)"/>
      <use xlink:href="#DejaVuSans-72" transform="translate(318.554688 0.015625)"/>
      <use xlink:href="#DejaVuSans-69" transform="translate(359.667969 0.015625)"/>
      <use xlink:href="#DejaVuSans-7a" transform="translate(387.451172 0.015625)"/>
      <use xlink:href="#DejaVuSans-61" transform="translate(439.941406 0.015625)"/>
      <use xlink:href="#DejaVuSans-74" transform="translate(501.220703 0.015625)"/>
      <use xlink:href="#DejaVuSans-69" transform="translate(540.429688 0.015625)"/>
      <use xlink:href="#DejaVuSans-6f" transform="translate(568.212891 0.015625)"/>
      <use xlink:href="#DejaVuSans-6e" transform="translate(629.394531 0.015625)"/>
      <use xlink:href="#DejaVuSans-20" transform="translate(692.773438 0.015625)"/>
      <use xlink:href="#DejaVuSans-Oblique-3bb" transform="translate(724.560547 0.015625)"/>
     </g>
    </g>
   </g>
   <g id="matplotlib.axis_2">
    <g id="ytick_1">
     <g id="line2d_57">
      <path d="M 58.953125 238.962128 
L 470.560398 238.962128 
" clip-path="url(#pcd00b6d084)" style="fill: none; stroke: #242b52; stroke-opacity: 0.7; stroke-width: 0.8; stroke-linecap: square"/>
     </g>
     <g id="line2d_58">
      <defs>
       <path id="m43168485d6" d="M 0 0 
L -3.5 0 
" style="stroke: #9aa3c7; stroke-width: 0.8"/>
      </defs>
      <g>
       <use xlink:href="#m43168485d6" x="58.953125" y="238.962128" style="fill: #9aa3c7; stroke: #9aa3c7; stroke-width: 0.8"/>
      </g>
     </g>
     <g id="text_8">
      <!-- −1.5 -->
      <g style="fill: #9aa3c7" transform="translate(22.81375 243.52119) scale(0.12 -0.12)">
       <defs>
        <path id="DejaVuSans-2e" d="M 684 794 
L 1344 794 
L 1344 0 
L 684 0 
L 684 794 
z
" transform="scale(0.015625)"/>
        <path id="DejaVuSans-35" d="M 691 4666 
L 3169 4666 
L 3169 4134 
L 1269 4134 
L 1269 2991 
Q 1406 3038 1543 3061 
Q 1681 3084 1819 3084 
Q 2600 3084 3056 2656 
Q 3513 2228 3513 1497 
Q 3513 744 3044 326 
Q 2575 -91 1722 -91 
Q 1428 -91 1123 -41 
Q 819 9 494 109 
L 494 744 
Q 775 591 1075 516 
Q 1375 441 1709 441 
Q 2250 441 2565 725 
Q 2881 1009 2881 1497 
Q 2881 1984 2565 2268 
Q 2250 2553 1709 2553 
Q 1456 2553 1204 2497 
Q 953 2441 691 2322 
L 691 4666 
z
" transform="scale(0.015625)"/>
       </defs>
       <use xlink:href="#DejaVuSans-2212"/>
       <use xlink:href="#DejaVuSans-31" x="83.789062"/>
       <use xlink:href="#DejaVuSans-2e" x="147.412109"/>
       <use xlink:href="#DejaVuSans-35" x="179.199219"/>
      </g>
     </g>
    </g>
    <g id="ytick_2">
     <g id="line2d_59">
      <path d="M 58.953125 209.805121 
L 470.560398 209.805121 
" clip-path="url(#pcd00b6d084)" style="fill: none; stroke: #242b52; stroke-opacity: 0.7; stroke-width: 0.8; stroke-linecap: square"/>
     </g>
     <g id="line2d_60">
      <g>
       <use xlink:href="#m43168485d6" x="58.953125" y="209.805121" style="fill: #9aa3c7; stroke: #9aa3c7; stroke-width: 0.8"/>
      </g>
     </g>
     <g id="text_9">
      <!-- −1.0 -->
      <g style="fill: #9aa3c7" transform="translate(22.81375 214.364184) scale(0.12 -0.12)">
       <use xlink:href="#DejaVuSans-2212"/>
       <use xlink:href="#DejaVuSans-31" x="83.789062"/>
       <use xlink:href="#DejaVuSans-2e" x="147.412109"/>
       <use xlink:href="#DejaVuSans-30" x="179.199219"/>
      </g>
     </g>
    </g>
    <g id="ytick_3">
     <g id="line2d_61">
      <path d="M 58.953125 180.648115 
L 470.560398 180.648115 
" clip-path="url(#pcd00b6d084)" style="fill: none; stroke: #242b52; stroke-opacity: 0.7; stroke-width: 0.8; stroke-linecap: square"/>
     </g>
     <g id="line2d_62">
      <g>
       <use xlink:href="#m43168485d6" x="58.953125" y="180.648115" style="fill: #9aa3c7; stroke: #9aa3c7; stroke-width: 0.8"/>
      </g>
     </g>
     <g id="text_10">
      <!-- −0.5 -->
      <g style="fill: #9aa3c7" transform="translate(22.81375 185.207177) scale(0.12 -0.12)">
       <use xlink:href="#DejaVuSans-2212"/>
       <use xlink:href="#DejaVuSans-30" x="83.789062"/>
       <use xlink:href="#DejaVuSans-2e" x="147.412109"/>
       <use xlink:href="#DejaVuSans-35" x="179.199219"/>
      </g>
     </g>
    </g>
    <g id="ytick_4">
     <g id="line2d_63">
      <path d="M 58.953125 151.491108 
L 470.560398 151.491108 
" clip-path="url(#pcd00b6d084)" style="fill: none; stroke: #242b52; stroke-opacity: 0.7; stroke-width: 0.8; stroke-linecap: square"/>
     </g>
     <g id="line2d_64">
      <g>
       <use xlink:href="#m43168485d6" x="58.953125" y="151.491108" style="fill: #9aa3c7; stroke: #9aa3c7; stroke-width: 0.8"/>
      </g>
     </g>
     <g id="text_11">
      <!-- 0.0 -->
      <g style="fill: #9aa3c7" transform="translate(32.869375 156.050171) scale(0.12 -0.12)">
       <use xlink:href="#DejaVuSans-30"/>
       <use xlink:href="#DejaVuSans-2e" x="63.623047"/>
       <use xlink:href="#DejaVuSans-30" x="95.410156"/>
      </g>
     </g>
    </g>
    <g id="ytick_5">
     <g id="line2d_65">
      <path d="M 58.953125 122.334102 
L 470.560398 122.334102 
" clip-path="url(#pcd00b6d084)" style="fill: none; stroke: #242b52; stroke-opacity: 0.7; stroke-width: 0.8; stroke-linecap: square"/>
     </g>
     <g id="line2d_66">
      <g>
       <use xlink:href="#m43168485d6" x="58.953125" y="122.334102" style="fill: #9aa3c7; stroke: #9aa3c7; stroke-width: 0.8"/>
      </g>
     </g>
     <g id="text_12">
      <!-- 0.5 -->
      <g style="fill: #9aa3c7" transform="translate(32.869375 126.893164) scale(0.12 -0.12)">
       <use xlink:href="#DejaVuSans-30"/>
       <use xlink:href="#DejaVuSans-2e" x="63.623047"/>
       <use xlink:href="#DejaVuSans-35" x="95.410156"/>
      </g>
     </g>
    </g>
    <g id="ytick_6">
     <g id="line2d_67">
      <path d="M 58.953125 93.177095 
L 470.560398 93.177095 
" clip-path="url(#pcd00b6d084)" style="fill: none; stroke: #242b52; stroke-opacity: 0.7; stroke-width: 0.8; stroke-linecap: square"/>
     </g>
     <g id="line2d_68">
      <g>
       <use xlink:href="#m43168485d6" x="58.953125" y="93.177095" style="fill: #9aa3c7; stroke: #9aa3c7; stroke-width: 0.8"/>
      </g>
     </g>
     <g id="text_13">
      <!-- 1.0 -->
      <g style="fill: #9aa3c7" transform="translate(32.869375 97.736158) scale(0.12 -0.12)">
       <use xlink:href="#DejaVuSans-31"/>
       <use xlink:href="#DejaVuSans-2e" x="63.623047"/>
       <use xlink:href="#DejaVuSans-30" x="95.410156"/>
      </g>
     </g>
    </g>
    <g id="ytick_7">
     <g id="line2d_69">
      <path d="M 58.953125 64.020089 
L 470.560398 64.020089 
" clip-path="url(#pcd00b6d084)" style="fill: none; stroke: #242b52; stroke-opacity: 0.7; stroke-width: 0.8; stroke-linecap: square"/>
     </g>
     <g id="line2d_70">
      <g>
       <use xlink:href="#m43168485d6" x="58.953125" y="64.020089" style="fill: #9aa3c7; stroke: #9aa3c7; stroke-width: 0.8"/>
      </g>
     </g>
     <g id="text_14">
      <!-- 1.5 -->
      <g style="fill: #9aa3c7" transform="translate(32.869375 68.579151) scale(0.12 -0.12)">
       <use xlink:href="#DejaVuSans-31"/>
       <use xlink:href="#DejaVuSans-2e" x="63.623047"/>
       <use xlink:href="#DejaVuSans-35" x="95.410156"/>
      </g>
     </g>
    </g>
    <g id="ytick_8">
     <g id="line2d_71">
      <path d="M 58.953125 34.863082 
L 470.560398 34.863082 
" clip-path="url(#pcd00b6d084)" style="fill: none; stroke: #242b52; stroke-opacity: 0.7; stroke-width: 0.8; stroke-linecap: square"/>
     </g>
     <g id="line2d_72">
      <g>
       <use xlink:href="#m43168485d6" x="58.953125" y="34.863082" style="fill: #9aa3c7; stroke: #9aa3c7; stroke-width: 0.8"/>
      </g>
     </g>
     <g id="text_15">
      <!-- 2.0 -->
      <g style="fill: #9aa3c7" transform="translate(32.869375 39.422145) scale(0.12 -0.12)">
       <use xlink:href="#DejaVuSans-32"/>
       <use xlink:href="#DejaVuSans-2e" x="63.623047"/>
       <use xlink:href="#DejaVuSans-30" x="95.410156"/>
      </g>
     </g>
    </g>
    <g id="text_16">
     <!-- coefficient value -->
     <g style="fill: #9aa3c7" transform="translate(16.318125 183.792884) rotate(-90) scale(0.12 -0.12)">
      <defs>
       <path id="DejaVuSans-63" d="M 3122 3366 
L 3122 2828 
Q 2878 2963 2633 3030 
Q 2388 3097 2138 3097 
Q 1578 3097 1268 2742 
Q 959 2388 959 1747 
Q 959 1106 1268 751 
Q 1578 397 2138 397 
Q 2388 397 2633 464 
Q 2878 531 3122 666 
L 3122 134 
Q 2881 22 2623 -34 
Q 2366 -91 2075 -91 
Q 1284 -91 818 406 
Q 353 903 353 1747 
Q 353 2603 823 3093 
Q 1294 3584 2113 3584 
Q 2378 3584 2631 3529 
Q 2884 3475 3122 3366 
z
" transform="scale(0.015625)"/>
       <path id="DejaVuSans-66" d="M 2375 4863 
L 2375 4384 
L 1825 4384 
Q 1516 4384 1395 4259 
Q 1275 4134 1275 3809 
L 1275 3500 
L 2222 3500 
L 2222 3053 
L 1275 3053 
L 1275 0 
L 697 0 
L 697 3053 
L 147 3053 
L 147 3500 
L 697 3500 
L 697 3744 
Q 697 4328 969 4595 
Q 1241 4863 1831 4863 
L 2375 4863 
z
" transform="scale(0.015625)"/>
       <path id="DejaVuSans-76" d="M 191 3500 
L 800 3500 
L 1894 563 
L 2988 3500 
L 3597 3500 
L 2284 0 
L 1503 0 
L 191 3500 
z
" transform="scale(0.015625)"/>
      </defs>
      <use xlink:href="#DejaVuSans-63"/>
      <use xlink:href="#DejaVuSans-6f" x="54.980469"/>
      <use xlink:href="#DejaVuSans-65" x="116.162109"/>
      <use xlink:href="#DejaVuSans-66" x="177.685547"/>
      <use xlink:href="#DejaVuSans-66" x="212.890625"/>
      <use xlink:href="#DejaVuSans-69" x="248.095703"/>
      <use xlink:href="#DejaVuSans-63" x="275.878906"/>
      <use xlink:href="#DejaVuSans-69" x="330.859375"/>
      <use xlink:href="#DejaVuSans-65" x="358.642578"/>
      <use xlink:href="#DejaVuSans-6e" x="420.166016"/>
      <use xlink:href="#DejaVuSans-74" x="483.544922"/>
      <use xlink:href="#DejaVuSans-20" x="522.753906"/>
      <use xlink:href="#DejaVuSans-76" x="554.541016"/>
      <use xlink:href="#DejaVuSans-61" x="613.720703"/>
      <use xlink:href="#DejaVuSans-6c" x="675"/>
      <use xlink:href="#DejaVuSans-75" x="702.783203"/>
      <use xlink:href="#DejaVuSans-65" x="766.162109"/>
     </g>
    </g>
   </g>
   <g id="line2d_73">
    <path d="M 77.662546 235.087721 
L 82.399109 235.083832 
L 87.135671 235.079334 
L 91.872234 235.07413 
L 96.608796 235.068111 
L 101.345358 235.061147 
L 106.081921 235.053091 
L 110.818483 235.043772 
L 115.555046 235.032993 
L 120.291608 235.020523 
L 125.028171 235.0061 
L 129.764733 234.989416 
L 134.501295 234.970118 
L 139.237858 234.947797 
L 143.97442 234.921982 
L 148.710983 234.892125 
L 153.447545 234.857596 
L 158.184107 234.817666 
L 162.92067 234.771495 
L 167.657232 234.71811 
L 172.393795 234.656392 
L 177.130357 234.585048 
L 181.866919 234.50259 
L 186.603482 234.407304 
L 191.340044 234.297219 
L 196.076607 234.170071 
L 200.813169 234.023261 
L 205.549731 233.853819 
L 210.286294 233.658349 
L 215.022856 233.432987 
L 219.759419 233.173347 
L 224.495981 232.874478 
L 229.232543 232.530816 
L 233.969106 232.136153 
L 238.705668 231.683615 
L 243.442231 231.165669 
L 248.178793 230.574151 
L 252.915355 229.900342 
L 257.651918 229.135092 
L 262.38848 228.268998 
L 267.125043 227.292647 
L 271.861605 226.196924 
L 276.598167 224.97338 
L 281.33473 223.614634 
L 286.071292 222.114814 
L 290.807855 220.469975 
L 295.544417 218.67849 
L 300.280979 216.741361 
L 305.017542 214.662432 
L 309.754104 212.448479 
L 314.490667 210.109165 
L 319.227229 207.656872 
L 323.963791 205.106417 
L 328.700354 202.474688 
L 333.436916 199.780209 
L 338.173479 197.042693 
L 342.910041 194.282572 
L 347.646603 191.520553 
L 352.383166 188.777182 
L 357.119728 186.072437 
L 361.856291 183.425336 
L 366.592853 180.853573 
L 371.329415 178.373169 
L 376.065978 175.998166 
L 380.80254 173.74036 
L 385.539103 171.609113 
L 390.275665 169.611238 
L 395.012227 167.750978 
L 399.74879 166.030094 
L 404.485352 164.448027 
L 409.221915 163.002148 
L 413.958477 161.688062 
L 418.695039 160.499938 
L 423.431602 159.430852 
L 428.168164 158.473119 
L 432.904727 157.618598 
L 437.641289 156.858953 
L 442.377851 156.185881 
L 447.114414 155.591282 
L 451.850976 155.067401 
" clip-path="url(#pcd00b6d084)" style="fill: none; stroke: #7aa2f7; stroke-opacity: 0.9; stroke-width: 1.5; stroke-linecap: square"/>
   </g>
   <g id="line2d_74">
    <path d="M 77.662546 33.173671 
L 82.399109 33.188808 
L 87.135671 33.206314 
L 91.872234 33.226558 
L 96.608796 33.249968 
L 101.345358 33.277037 
L 106.081921 33.308334 
L 110.818483 33.344515 
L 115.555046 33.38634 
L 120.291608 33.434682 
L 125.028171 33.490548 
L 129.764733 33.5551 
L 134.501295 33.629672 
L 139.237858 33.715801 
L 143.97442 33.815253 
L 148.710983 33.930055 
L 153.447545 34.06253 
L 158.184107 34.21534 
L 162.92067 34.391525 
L 167.657232 34.594555 
L 172.393795 34.82838 
L 177.130357 35.097484 
L 181.866919 35.406946 
L 186.603482 35.762494 
L 191.340044 36.170565 
L 196.076607 36.638358 
L 200.813169 37.173883 
L 205.549731 37.785994 
L 210.286294 38.484405 
L 215.022856 39.279683 
L 219.759419 40.183204 
L 224.495981 41.207064 
L 229.232543 42.36394 
L 233.969106 43.666879 
L 238.705668 45.129021 
L 243.442231 46.763225 
L 248.178793 48.581631 
L 252.915355 50.595118 
L 257.651918 52.812708 
L 262.38848 55.24092 
L 267.125043 57.883101 
L 271.861605 60.738795 
L 276.598167 63.803185 
L 281.33473 67.066667 
L 286.071292 70.514619 
L 290.807855 74.127391 
L 295.544417 77.880564 
L 300.280979 81.745484 
L 305.017542 85.690058 
L 309.754104 89.679773 
L 314.490667 93.678883 
L 319.227229 97.651681 
L 323.963791 101.56377 
L 328.700354 105.383224 
L 333.436916 109.081578 
L 338.173479 112.634551 
L 342.910041 116.022497 
L 347.646603 119.230551 
L 352.383166 122.248507 
L 357.119728 125.070491 
L 361.856291 127.694467 
L 366.592853 130.121668 
L 371.329415 132.356007 
L 376.065978 134.403508 
L 380.80254 136.2718 
L 385.539103 137.969678 
L 390.275665 139.506738 
L 395.012227 140.893085 
L 399.74879 142.139083 
L 404.485352 143.255164 
L 409.221915 144.251663 
L 413.958477 145.138685 
L 418.695039 145.925991 
L 423.431602 146.622917 
L 428.168164 147.238299 
L 432.904727 147.780429 
L 437.641289 148.257019 
L 442.377851 148.675185 
L 447.114414 149.041453 
L 451.850976 149.361759 
" clip-path="url(#pcd00b6d084)" style="fill: none; stroke: #f7768e; stroke-opacity: 0.9; stroke-width: 1.5; stroke-linecap: square"/>
   </g>
   <g id="line2d_75">
    <path d="M 77.662546 98.428111 
L 82.399109 98.434205 
L 87.135671 98.441254 
L 91.872234 98.449405 
L 96.608796 98.458832 
L 101.345358 98.469734 
L 106.081921 98.48234 
L 110.818483 98.496914 
L 115.555046 98.513765 
L 120.291608 98.533243 
L 125.028171 98.555758 
L 129.764733 98.581779 
L 134.501295 98.611846 
L 139.237858 98.646583 
L 143.97442 98.686706 
L 148.710983 98.73304 
L 153.447545 98.786529 
L 158.184107 98.84826 
L 162.92067 98.919476 
L 167.657232 99.001598 
L 172.393795 99.096251 
L 177.130357 99.205283 
L 181.866919 99.330797 
L 186.603482 99.475178 
L 191.340044 99.641119 
L 196.076607 99.831654 
L 200.813169 100.050183 
L 205.549731 100.300503 
L 210.286294 100.586827 
L 215.022856 100.913799 
L 219.759419 101.286503 
L 224.495981 101.710458 
L 229.232543 102.191588 
L 233.969106 102.736187 
L 238.705668 103.350842 
L 243.442231 104.042334 
L 248.178793 104.817504 
L 252.915355 105.683076 
L 257.651918 106.64544 
L 262.38848 107.710395 
L 267.125043 108.882846 
L 271.861605 110.166468 
L 276.598167 111.56334 
L 281.33473 113.073563 
L 286.071292 114.694885 
L 290.807855 116.422354 
L 295.544417 118.24804 
L 300.280979 120.160852 
L 305.017542 122.146506 
L 309.754104 124.187663 
L 314.490667 126.264275 
L 319.227229 128.354141 
L 323.963791 130.433658 
L 328.700354 132.478726 
L 333.436916 134.465748 
L 338.173479 136.37264 
L 342.910041 138.179778 
L 347.646603 139.870786 
L 352.383166 141.43312 
L 357.119728 142.858389 
L 361.856291 144.142419 
L 366.592853 145.285052 
L 371.329415 146.289734 
L 376.065978 147.16294 
L 380.80254 147.913498 
L 385.539103 148.551877 
L 390.275665 149.089507 
L 395.012227 149.538159 
L 399.74879 149.909431 
L 404.485352 150.214353 
L 409.221915 150.463109 
L 413.958477 150.664866 
L 418.695039 150.827699 
L 423.431602 150.958588 
L 428.168164 151.06347 
L 432.904727 151.147321 
L 437.641289 151.214262 
L 442.377851 151.267671 
L 447.114414 151.310289 
L 451.850976 151.344326 
" clip-path="url(#pcd00b6d084)" style="fill: none; stroke: #9ece6a; stroke-opacity: 0.9; stroke-width: 1.5; stroke-linecap: square"/>
   </g>
   <g id="line2d_76">
    <path d="M 77.662546 172.795479 
L 82.399109 172.792296 
L 87.135671 172.788615 
L 91.872234 172.784359 
L 96.608796 172.779436 
L 101.345358 172.773744 
L 106.081921 172.767162 
L 110.818483 172.759553 
L 115.555046 172.750756 
L 120.291608 172.740588 
L 125.028171 172.728836 
L 129.764733 172.715256 
L 134.501295 172.699566 
L 139.237858 172.681442 
L 143.97442 172.660512 
L 148.710983 172.636346 
L 153.447545 172.608454 
L 158.184107 172.576274 
L 162.92067 172.53916 
L 167.657232 172.496377 
L 172.393795 172.447086 
L 177.130357 172.390334 
L 181.866919 172.325036 
L 186.603482 172.249971 
L 191.340044 172.163756 
L 196.076607 172.064845 
L 200.813169 171.951506 
L 205.549731 171.821818 
L 210.286294 171.673658 
L 215.022856 171.5047 
L 219.759419 171.312416 
L 224.495981 171.094087 
L 229.232543 170.846822 
L 233.969106 170.567589 
L 238.705668 170.253263 
L 243.442231 169.900687 
L 248.178793 169.506753 
L 252.915355 169.068502 
L 257.651918 168.583243 
L 262.38848 168.048691 
L 267.125043 167.463121 
L 271.861605 166.825528 
L 276.598167 166.135805 
L 281.33473 165.394901 
L 286.071292 164.60498 
L 290.807855 163.769542 
L 295.544417 162.893514 
L 300.280979 161.983278 
L 305.017542 161.046634 
L 309.754104 160.092685 
L 314.490667 159.131641 
L 319.227229 158.174539 
L 323.963791 157.232901 
L 328.700354 156.318335 
L 333.436916 155.442118 
L 338.173479 154.614768 
L 342.910041 153.845645 
L 347.646603 153.142598 
L 352.383166 152.511677 
L 357.119728 151.956925 
L 361.856291 151.480265 
L 366.592853 151.081499 
L 371.329415 150.758399 
L 376.065978 150.50692 
L 380.80254 150.321484 
L 385.539103 150.195352 
L 390.275665 150.121014 
L 395.012227 150.090601 
L 399.74879 150.096256 
L 404.485352 150.130459 
L 409.221915 150.186279 
L 413.958477 150.257548 
L 418.695039 150.338953 
L 423.431602 150.426069 
L 428.168164 150.515331 
L 432.904727 150.603969 
L 437.641289 150.689919 
L 442.377851 150.771719 
L 447.114414 150.848408 
L 451.850976 150.919426 
" clip-path="url(#pcd00b6d084)" style="fill: none; stroke: #e0af68; stroke-opacity: 0.9; stroke-width: 1.5; stroke-linecap: square"/>
   </g>
   <g id="line2d_77">
    <path d="M 77.662546 197.019998 
L 82.399109 197.010823 
L 87.135671 197.000214 
L 91.872234 196.987945 
L 96.608796 196.97376 
L 101.345358 196.957359 
L 106.081921 196.938399 
L 110.818483 196.916482 
L 115.555046 196.891151 
L 120.291608 196.861879 
L 125.028171 196.828059 
L 129.764733 196.78899 
L 134.501295 196.74387 
L 139.237858 196.691774 
L 143.97442 196.631644 
L 148.710983 196.562265 
L 153.447545 196.482247 
L 158.184107 196.390002 
L 162.92067 196.283721 
L 167.657232 196.161344 
L 172.393795 196.020537 
L 177.130357 195.858657 
L 181.866919 195.672731 
L 186.603482 195.45942 
L 191.340044 195.214999 
L 196.076607 194.935333 
L 200.813169 194.615866 
L 205.549731 194.251619 
L 210.286294 193.837201 
L 215.022856 193.366846 
L 219.759419 192.834467 
L 224.495981 192.233754 
L 229.232543 191.558301 
L 233.969106 190.801781 
L 238.705668 189.958166 
L 243.442231 189.022002 
L 248.178793 187.988726 
L 252.915355 186.855019 
L 257.651918 185.619188 
L 262.38848 184.281552 
L 267.125043 182.844789 
L 271.861605 181.314241 
L 276.598167 179.698106 
L 281.33473 178.007511 
L 286.071292 176.256418 
L 290.807855 174.461356 
L 295.544417 172.640975 
L 300.280979 170.815437 
L 305.017542 169.005677 
L 309.754104 167.23259 
L 314.490667 165.516191 
L 319.227229 163.87482 
L 323.963791 162.324449 
L 328.700354 160.878139 
L 333.436916 159.545676 
L 338.173479 158.333404 
L 342.910041 157.244252 
L 347.646603 156.277934 
L 352.383166 155.431292 
L 357.119728 154.698738 
L 361.856291 154.072767 
L 366.592853 153.544491 
L 371.329415 153.104162 
L 376.065978 152.74165 
L 380.80254 152.446868 
L 385.539103 152.210111 
L 390.275665 152.022317 
L 395.012227 151.875239 
L 399.74879 151.761548 
L 404.485352 151.674868 
L 409.221915 151.609754 
L 413.958477 151.561644 
L 418.695039 151.526768 
L 423.431602 151.502067 
L 428.168164 151.485085 
L 432.904727 151.473881 
L 437.641289 151.466936 
L 442.377851 151.463079 
L 447.114414 151.461415 
L 451.850976 151.46127 
" clip-path="url(#pcd00b6d084)" style="fill: none; stroke: #bb9af7; stroke-opacity: 0.9; stroke-width: 1.5; stroke-linecap: square"/>
   </g>
   <g id="line2d_78">
    <path d="M 77.662546 209.242662 
L 82.399109 209.238101 
L 87.135671 209.232827 
L 91.872234 209.226727 
L 96.608796 209.219672 
L 101.345358 209.211514 
L 106.081921 209.202081 
L 110.818483 209.191173 
L 115.555046 209.178563 
L 120.291608 209.163984 
L 125.028171 209.147133 
L 129.764733 209.127658 
L 134.501295 209.105152 
L 139.237858 209.07915 
L 143.97442 209.049114 
L 148.710983 209.014427 
L 153.447545 208.974379 
L 158.184107 208.928156 
L 162.92067 208.874825 
L 167.657232 208.813319 
L 172.393795 208.742418 
L 177.130357 208.660733 
L 181.866919 208.566681 
L 186.603482 208.458468 
L 191.340044 208.334064 
L 196.076607 208.191182 
L 200.813169 208.027252 
L 205.549731 207.839404 
L 210.286294 207.624446 
L 215.022856 207.378851 
L 219.759419 207.09875 
L 224.495981 206.779932 
L 229.232543 206.417858 
L 233.969106 206.007686 
L 238.705668 205.544321 
L 243.442231 205.022479 
L 248.178793 204.436781 
L 252.915355 203.781865 
L 257.651918 203.052537 
L 262.38848 202.243935 
L 267.125043 201.351725 
L 271.861605 200.372311 
L 276.598167 199.303059 
L 281.33473 198.142508 
L 286.071292 196.890586 
L 290.807855 195.548778 
L 295.544417 194.120258 
L 300.280979 192.609958 
L 305.017542 191.024557 
L 309.754104 189.372399 
L 314.490667 187.663308 
L 319.227229 185.908348 
L 323.963791 184.119503 
L 328.700354 182.309335 
L 333.436916 180.490624 
L 338.173479 178.67603 
L 342.910041 176.877794 
L 347.646603 175.107497 
L 352.383166 173.375878 
L 357.119728 171.692704 
L 361.856291 170.066687 
L 366.592853 168.505431 
L 371.329415 167.015394 
L 376.065978 165.601857 
L 380.80254 164.268906 
L 385.539103 163.019419 
L 390.275665 161.855065 
L 395.012227 160.776337 
L 399.74879 159.782602 
L 404.485352 158.872197 
L 409.221915 158.042536 
L 413.958477 157.290261 
L 418.695039 156.611388 
L 423.431602 156.001473 
L 428.168164 155.455766 
L 432.904727 154.969357 
L 437.641289 154.537304 
L 442.377851 154.154739 
L 447.114414 153.816956 
L 451.850976 153.519473 
" clip-path="url(#pcd00b6d084)" style="fill: none; stroke: #7dcfff; stroke-opacity: 0.9; stroke-width: 1.5; stroke-linecap: square"/>
   </g>
   <g id="line2d_79">
    <path d="M 77.662546 141.493374 
L 82.399109 141.490579 
L 87.135671 141.487347 
L 91.872234 141.483611 
L 96.608796 141.479293 
L 101.345358 141.474304 
L 106.081921 141.46854 
L 110.818483 141.461882 
L 115.555046 141.454193 
L 120.291608 141.445316 
L 125.028171 141.435072 
L 129.764733 141.423253 
L 134.501295 141.409623 
L 139.237858 141.393913 
L 143.97442 141.375817 
L 148.710983 141.354985 
L 153.447545 141.331023 
L 158.184107 141.303485 
L 162.92067 141.271871 
L 167.657232 141.235619 
L 172.393795 141.194109 
L 177.130357 141.146652 
L 181.866919 141.092497 
L 186.603482 141.030831 
L 191.340044 140.960785 
L 196.076607 140.881447 
L 200.813169 140.79188 
L 205.549731 140.691148 
L 210.286294 140.578355 
L 215.022856 140.452698 
L 219.759419 140.31353 
L 224.495981 140.160441 
L 229.232543 139.993362 
L 233.969106 139.812679 
L 238.705668 139.619366 
L 243.442231 139.415121 
L 248.178793 139.202508 
L 252.915355 138.985082 
L 257.651918 138.767482 
L 262.38848 138.555479 
L 267.125043 138.355946 
L 271.861605 138.176745 
L 276.598167 138.026497 
L 281.33473 137.914252 
L 286.071292 137.849056 
L 290.807855 137.839432 
L 295.544417 137.892834 
L 300.280979 138.015107 
L 305.017542 138.210015 
L 309.754104 138.478904 
L 314.490667 138.820524 
L 319.227229 139.231045 
L 323.963791 139.704269 
L 328.700354 140.232008 
L 333.436916 140.804579 
L 338.173479 141.411375 
L 342.910041 142.041446 
L 347.646603 142.684023 
L 352.383166 143.328977 
L 357.119728 143.967163 
L 361.856291 144.590642 
L 366.592853 145.192809 
L 371.329415 145.768418 
L 376.065978 146.313529 
L 380.80254 146.825409 
L 385.539103 147.302404 
L 390.275665 147.743781 
L 395.012227 148.149585 
L 399.74879 148.520487 
L 404.485352 148.857655 
L 409.221915 149.162628 
L 413.958477 149.437214 
L 418.695039 149.683397 
L 423.431602 149.903258 
L 428.168164 150.098918 
L 432.904727 150.272477 
L 437.641289 150.42598 
L 442.377851 150.561385 
L 447.114414 150.68054 
L 451.850976 150.785172 
" clip-path="url(#pcd00b6d084)" style="fill: none; stroke: #ff9e64; stroke-opacity: 0.9; stroke-width: 1.5; stroke-linecap: square"/>
   </g>
   <g id="line2d_80">
    <path d="M 77.662546 182.95422 
L 82.399109 182.953224 
L 87.135671 182.952072 
L 91.872234 182.950741 
L 96.608796 182.949203 
L 101.345358 182.947425 
L 106.081921 182.945371 
L 110.818483 182.942998 
L 115.555046 182.940257 
L 120.291608 182.937093 
L 125.028171 182.933441 
L 129.764733 182.929227 
L 134.501295 182.924367 
L 139.237858 182.918765 
L 143.97442 182.912309 
L 148.710983 182.904876 
L 153.447545 182.896324 
L 158.184107 182.886492 
L 162.92067 182.8752 
L 167.657232 182.862245 
L 172.393795 182.847402 
L 177.130357 182.830419 
L 181.866919 182.811021 
L 186.603482 182.788908 
L 191.340044 182.763753 
L 196.076607 182.73521 
L 200.813169 182.702913 
L 205.549731 182.666486 
L 210.286294 182.625546 
L 215.022856 182.57972 
L 219.759419 182.528654 
L 224.495981 182.472029 
L 229.232543 182.409577 
L 233.969106 182.341097 
L 238.705668 182.266468 
L 243.442231 182.185652 
L 248.178793 182.098683 
L 252.915355 182.005647 
L 257.651918 181.906623 
L 262.38848 181.801602 
L 267.125043 181.690362 
L 271.861605 181.572315 
L 276.598167 181.446311 
L 281.33473 181.310426 
L 286.071292 181.161749 
L 290.807855 180.996189 
L 295.544417 180.808342 
L 300.280979 180.591454 
L 305.017542 180.337498 
L 309.754104 180.037405 
L 314.490667 179.681442 
L 319.227229 179.259736 
L 323.963791 178.76291 
L 328.700354 178.18279 
L 333.436916 177.51311 
L 338.173479 176.750161 
L 342.910041 175.893303 
L 347.646603 174.945288 
L 352.383166 173.912354 
L 357.119728 172.804072 
L 361.856291 171.632944 
L 366.592853 170.413803 
L 371.329415 169.163053 
L 376.065978 167.897833 
L 380.80254 166.635171 
L 385.539103 165.391207 
L 390.275665 164.180543 
L 395.012227 163.015748 
L 399.74879 161.907058 
L 404.485352 160.86225 
L 409.221915 159.886671 
L 413.958477 158.983402 
L 418.695039 158.153509 
L 423.431602 157.396352 
L 428.168164 156.709909 
L 432.904727 156.091102 
L 437.641289 155.536094 
L 442.377851 155.040561 
L 447.114414 154.599907 
L 451.850976 154.209448 
" clip-path="url(#pcd00b6d084)" style="fill: none; stroke: #7aa2f7; stroke-opacity: 0.9; stroke-width: 1.5; stroke-linecap: square"/>
   </g>
   <g id="line2d_81">
    <path d="M 77.662546 195.857575 
L 82.399109 195.849241 
L 87.135671 195.839603 
L 91.872234 195.828459 
L 96.608796 195.815573 
L 101.345358 195.800674 
L 106.081921 195.78345 
L 110.818483 195.76354 
L 115.555046 195.740529 
L 120.291608 195.713936 
L 125.028171 195.68321 
L 129.764733 195.647716 
L 134.501295 195.606722 
L 139.237858 195.559389 
L 143.97442 195.504754 
L 148.710983 195.441713 
L 153.447545 195.368999 
L 158.184107 195.28517 
L 162.92067 195.188577 
L 167.657232 195.077344 
L 172.393795 194.949345 
L 177.130357 194.802171 
L 181.866919 194.633106 
L 186.603482 194.439103 
L 191.340044 194.216752 
L 196.076607 193.962267 
L 200.813169 193.671465 
L 205.549731 193.339762 
L 210.286294 192.962178 
L 215.022856 192.53336 
L 219.759419 192.047625 
L 224.495981 191.499027 
L 229.232543 190.881462 
L 233.969106 190.188794 
L 238.705668 189.415036 
L 243.442231 188.554553 
L 248.178793 187.602318 
L 252.915355 186.554185 
L 257.651918 185.407196 
L 262.38848 184.159889 
L 267.125043 182.812606 
L 271.861605 181.36777 
L 276.598167 179.830113 
L 281.33473 178.206849 
L 286.071292 176.507756 
L 290.807855 174.745167 
L 295.544417 172.933856 
L 300.280979 171.090805 
L 305.017542 169.234858 
L 309.754104 167.386247 
L 314.490667 165.566006 
L 319.227229 163.795277 
L 323.963791 162.094548 
L 328.700354 160.482857 
L 333.436916 158.977013 
L 338.173479 157.590902 
L 342.910041 156.334941 
L 347.646603 155.21572 
L 352.383166 154.235869 
L 357.119728 153.394171 
L 361.856291 152.685883 
L 366.592853 152.103249 
L 371.329415 151.636142 
L 376.065978 151.272764 
L 380.80254 151.000368 
L 385.539103 150.805911 
L 390.275665 150.676632 
L 395.012227 150.600505 
L 399.74879 150.566562 
L 404.485352 150.565097 
L 409.221915 150.587755 
L 413.958477 150.627531 
L 418.695039 150.678703 
L 423.431602 150.736717 
L 428.168164 150.798044 
L 432.904727 150.860034 
L 437.641289 150.920765 
L 442.377851 150.978903 
L 447.114414 151.033581 
L 451.850976 151.084293 
" clip-path="url(#pcd00b6d084)" style="fill: none; stroke: #f7768e; stroke-opacity: 0.9; stroke-width: 1.5; stroke-linecap: square"/>
   </g>
   <g id="line2d_82">
    <path d="M 77.662546 102.548077 
L 82.399109 102.546706 
L 87.135671 102.545123 
L 91.872234 102.543295 
L 96.608796 102.541185 
L 101.345358 102.53875 
L 106.081921 102.535942 
L 110.818483 102.532703 
L 115.555046 102.528972 
L 120.291608 102.524675 
L 125.028171 102.51973 
L 129.764733 102.514045 
L 134.501295 102.507515 
L 139.237858 102.500022 
L 143.97442 102.491438 
L 148.710983 102.481618 
L 153.447545 102.470406 
L 158.184107 102.45763 
L 162.92067 102.443111 
L 167.657232 102.42666 
L 172.393795 102.408085 
L 177.130357 102.387201 
L 181.866919 102.363837 
L 186.603482 102.337856 
L 191.340044 102.309177 
L 196.076607 102.2778 
L 200.813169 102.243851 
L 205.549731 102.207626 
L 210.286294 102.169665 
L 215.022856 102.130822 
L 219.759419 102.092374 
L 224.495981 102.05613 
L 229.232543 102.024575 
L 233.969106 102.00102 
L 238.705668 101.989766 
L 243.442231 101.996271 
L 248.178793 102.027301 
L 252.915355 102.09105 
L 257.651918 102.197196 
L 262.38848 102.356876 
L 267.125043 102.582534 
L 271.861605 102.887626 
L 276.598167 103.286165 
L 281.33473 103.792091 
L 286.071292 104.418513 
L 290.807855 105.17684 
L 295.544417 106.075896 
L 300.280979 107.121104 
L 305.017542 108.313827 
L 309.754104 109.650971 
L 314.490667 111.124898 
L 319.227229 112.723675 
L 323.963791 114.431647 
L 328.700354 116.23024 
L 333.436916 118.098926 
L 338.173479 120.016218 
L 342.910041 121.960599 
L 347.646603 123.911315 
L 352.383166 125.848972 
L 357.119728 127.755948 
L 361.856291 129.616629 
L 366.592853 131.417512 
L 371.329415 133.147218 
L 376.065978 134.796455 
L 380.80254 136.357948 
L 385.539103 137.826363 
L 390.275665 139.198212 
L 395.012227 140.471741 
L 399.74879 141.646801 
L 404.485352 142.724683 
L 409.221915 143.707938 
L 413.958477 144.600173 
L 418.695039 145.405838 
L 423.431602 146.130005 
L 428.168164 146.778172 
L 432.904727 147.356067 
L 437.641289 147.869494 
L 442.377851 148.324185 
L 447.114414 148.725701 
L 451.850976 149.079346 
" clip-path="url(#pcd00b6d084)" style="fill: none; stroke: #9ece6a; stroke-opacity: 0.9; stroke-width: 1.5; stroke-linecap: square"/>
   </g>
   <g id="line2d_83">
    <path d="M 77.662546 131.531209 
L 82.399109 131.534761 
L 87.135671 131.538867 
L 91.872234 131.543613 
L 96.608796 131.549098 
L 101.345358 131.555436 
L 106.081921 131.562759 
L 110.818483 131.571218 
L 115.555046 131.580986 
L 120.291608 131.592264 
L 125.028171 131.605279 
L 129.764733 131.620295 
L 134.501295 131.637612 
L 139.237858 131.657572 
L 143.97442 131.680564 
L 148.710983 131.707033 
L 153.447545 131.737481 
L 158.184107 131.772474 
L 162.92067 131.812651 
L 167.657232 131.858723 
L 172.393795 131.911485 
L 177.130357 131.971812 
L 181.866919 132.040666 
L 186.603482 132.119087 
L 191.340044 132.20819 
L 196.076607 132.309152 
L 200.813169 132.423187 
L 205.549731 132.551521 
L 210.286294 132.695344 
L 215.022856 132.855756 
L 219.759419 133.033692 
L 224.495981 133.229833 
L 229.232543 133.4445 
L 233.969106 133.677534 
L 238.705668 133.928167 
L 243.442231 134.194892 
L 248.178793 134.475352 
L 252.915355 134.766253 
L 257.651918 135.063339 
L 262.38848 135.361434 
L 267.125043 135.654591 
L 271.861605 135.936349 
L 276.598167 136.200114 
L 281.33473 136.439646 
L 286.071292 136.649627 
L 290.807855 136.826267 
L 295.544417 136.967865 
L 300.280979 137.075279 
L 305.017542 137.152207 
L 309.754104 137.205245 
L 314.490667 137.243676 
L 319.227229 137.278992 
L 323.963791 137.32419 
L 328.700354 137.392895 
L 333.436916 137.498395 
L 338.173479 137.652688 
L 342.910041 137.865622 
L 347.646603 138.144211 
L 352.383166 138.492188 
L 357.119728 138.909815 
L 361.856291 139.393964 
L 366.592853 139.938442 
L 371.329415 140.534511 
L 376.065978 141.171553 
L 380.80254 141.837803 
L 385.539103 142.521082 
L 390.275665 143.209472 
L 395.012227 143.891885 
L 399.74879 144.558496 
L 404.485352 145.201025 
L 409.221915 145.812881 
L 413.958477 146.389171 
L 418.695039 146.926617 
L 423.431602 147.423394 
L 428.168164 147.878929 
L 432.904727 148.293677 
L 437.641289 148.668897 
L 442.377851 149.006446 
L 447.114414 149.308591 
L 451.850976 149.577854 
" clip-path="url(#pcd00b6d084)" style="fill: none; stroke: #e0af68; stroke-opacity: 0.9; stroke-width: 1.5; stroke-linecap: square"/>
   </g>
   <g id="line2d_84">
    <path d="M 77.662546 173.863928 
L 82.399109 173.859653 
L 87.135671 173.85471 
L 91.872234 173.848994 
L 96.608796 173.842385 
L 101.345358 173.834745 
L 106.081921 173.825913 
L 110.818483 173.815705 
L 115.555046 173.803908 
L 120.291608 173.790276 
L 125.028171 173.774529 
L 129.764733 173.756341 
L 134.501295 173.735339 
L 139.237858 173.711096 
L 143.97442 173.683121 
L 148.710983 173.650851 
L 153.447545 173.613644 
L 158.184107 173.570768 
L 162.92067 173.521388 
L 167.657232 173.464558 
L 172.393795 173.399206 
L 177.130357 173.324121 
L 181.866919 173.237946 
L 186.603482 173.139163 
L 191.340044 173.026082 
L 196.076607 172.89684 
L 200.813169 172.749393 
L 205.549731 172.581522 
L 210.286294 172.390845 
L 215.022856 172.174837 
L 219.759419 171.930864 
L 224.495981 171.656236 
L 229.232543 171.348269 
L 233.969106 171.004373 
L 238.705668 170.622157 
L 243.442231 170.199554 
L 248.178793 169.734953 
L 252.915355 169.22735 
L 257.651918 168.676484 
L 262.38848 168.08297 
L 267.125043 167.448393 
L 271.861605 166.775361 
L 276.598167 166.067507 
L 281.33473 165.329422 
L 286.071292 164.566527 
L 290.807855 163.784889 
L 295.544417 162.991009 
L 300.280979 162.191583 
L 305.017542 161.393287 
L 309.754104 160.602591 
L 314.490667 159.825615 
L 319.227229 159.068044 
L 323.963791 158.335077 
L 328.700354 157.631413 
L 333.436916 156.961237 
L 338.173479 156.328202 
L 342.910041 155.735403 
L 347.646603 155.185317 
L 352.383166 154.679743 
L 357.119728 154.219743 
L 361.856291 153.80559 
L 366.592853 153.436759 
L 371.329415 153.111945 
L 376.065978 152.82913 
L 380.80254 152.585687 
L 385.539103 152.378514 
L 390.275665 152.204187 
L 395.012227 152.059112 
L 399.74879 151.939673 
L 404.485352 151.842357 
L 409.221915 151.763855 
L 413.958477 151.701133 
L 418.695039 151.651477 
L 423.431602 151.612507 
L 428.168164 151.582181 
L 432.904727 151.558774 
L 437.641289 151.540849 
L 442.377851 151.527231 
L 447.114414 151.516968 
L 451.850976 151.509297 
" clip-path="url(#pcd00b6d084)" style="fill: none; stroke: #bb9af7; stroke-opacity: 0.9; stroke-width: 1.5; stroke-linecap: square"/>
   </g>
   <g id="line2d_85">
    <path d="M 58.953125 151.491108 
L 470.560398 151.491108 
" clip-path="url(#pcd00b6d084)" style="fill: none; stroke: #6c7596; stroke-width: 0.8; stroke-linecap: square"/>
   </g>
   <g id="patch_3">
    <path d="M 58.953125 245.183423 
L 58.953125 23.077969 
" style="fill: none; stroke: #242b52; stroke-width: 0.8; stroke-linejoin: miter; stroke-linecap: square"/>
   </g>
   <g id="patch_4">
    <path d="M 58.953125 245.183423 
L 470.560398 245.183423 
" style="fill: none; stroke: #242b52; stroke-width: 0.8; stroke-linejoin: miter; stroke-linecap: square"/>
   </g>
   <g id="text_17">
    <!-- Ridge coefficient paths: smooth shrinkage -->
    <g style="fill: #e6e9f5" transform="translate(127.384339 17.077969) scale(0.13 -0.13)">
     <defs>
      <path id="DejaVuSans-52" d="M 2841 2188 
Q 3044 2119 3236 1894 
Q 3428 1669 3622 1275 
L 4263 0 
L 3584 0 
L 2988 1197 
Q 2756 1666 2539 1819 
Q 2322 1972 1947 1972 
L 1259 1972 
L 1259 0 
L 628 0 
L 628 4666 
L 2053 4666 
Q 2853 4666 3247 4331 
Q 3641 3997 3641 3322 
Q 3641 2881 3436 2590 
Q 3231 2300 2841 2188 
z
M 1259 4147 
L 1259 2491 
L 2053 2491 
Q 2509 2491 2742 2702 
Q 2975 2913 2975 3322 
Q 2975 3731 2742 3939 
Q 2509 4147 2053 4147 
L 1259 4147 
z
" transform="scale(0.015625)"/>
      <path id="DejaVuSans-64" d="M 2906 2969 
L 2906 4863 
L 3481 4863 
L 3481 0 
L 2906 0 
L 2906 525 
Q 2725 213 2448 61 
Q 2172 -91 1784 -91 
Q 1150 -91 751 415 
Q 353 922 353 1747 
Q 353 2572 751 3078 
Q 1150 3584 1784 3584 
Q 2172 3584 2448 3432 
Q 2725 3281 2906 2969 
z
M 947 1747 
Q 947 1113 1208 752 
Q 1469 391 1925 391 
Q 2381 391 2643 752 
Q 2906 1113 2906 1747 
Q 2906 2381 2643 2742 
Q 2381 3103 1925 3103 
Q 1469 3103 1208 2742 
Q 947 2381 947 1747 
z
" transform="scale(0.015625)"/>
      <path id="DejaVuSans-70" d="M 1159 525 
L 1159 -1331 
L 581 -1331 
L 581 3500 
L 1159 3500 
L 1159 2969 
Q 1341 3281 1617 3432 
Q 1894 3584 2278 3584 
Q 2916 3584 3314 3078 
Q 3713 2572 3713 1747 
Q 3713 922 3314 415 
Q 2916 -91 2278 -91 
Q 1894 -91 1617 61 
Q 1341 213 1159 525 
z
M 3116 1747 
Q 3116 2381 2855 2742 
Q 2594 3103 2138 3103 
Q 1681 3103 1420 2742 
Q 1159 2381 1159 1747 
Q 1159 1113 1420 752 
Q 1681 391 2138 391 
Q 2594 391 2855 752 
Q 3116 1113 3116 1747 
z
" transform="scale(0.015625)"/>
      <path id="DejaVuSans-68" d="M 3513 2113 
L 3513 0 
L 2938 0 
L 2938 2094 
Q 2938 2591 2744 2837 
Q 2550 3084 2163 3084 
Q 1697 3084 1428 2787 
Q 1159 2491 1159 1978 
L 1159 0 
L 581 0 
L 581 4863 
L 1159 4863 
L 1159 2956 
Q 1366 3272 1645 3428 
Q 1925 3584 2291 3584 
Q 2894 3584 3203 3211 
Q 3513 2838 3513 2113 
z
" transform="scale(0.015625)"/>
      <path id="DejaVuSans-73" d="M 2834 3397 
L 2834 2853 
Q 2591 2978 2328 3040 
Q 2066 3103 1784 3103 
Q 1356 3103 1142 2972 
Q 928 2841 928 2578 
Q 928 2378 1081 2264 
Q 1234 2150 1697 2047 
L 1894 2003 
Q 2506 1872 2764 1633 
Q 3022 1394 3022 966 
Q 3022 478 2636 193 
Q 2250 -91 1575 -91 
Q 1294 -91 989 -36 
Q 684 19 347 128 
L 347 722 
Q 666 556 975 473 
Q 1284 391 1588 391 
Q 1994 391 2212 530 
Q 2431 669 2431 922 
Q 2431 1156 2273 1281 
Q 2116 1406 1581 1522 
L 1381 1569 
Q 847 1681 609 1914 
Q 372 2147 372 2553 
Q 372 3047 722 3315 
Q 1072 3584 1716 3584 
Q 2034 3584 2315 3537 
Q 2597 3491 2834 3397 
z
" transform="scale(0.015625)"/>
      <path id="DejaVuSans-3a" d="M 750 794 
L 1409 794 
L 1409 0 
L 750 0 
L 750 794 
z
M 750 3309 
L 1409 3309 
L 1409 2516 
L 750 2516 
L 750 3309 
z
" transform="scale(0.015625)"/>
      <path id="DejaVuSans-6d" d="M 3328 2828 
Q 3544 3216 3844 3400 
Q 4144 3584 4550 3584 
Q 5097 3584 5394 3201 
Q 5691 2819 5691 2113 
L 5691 0 
L 5113 0 
L 5113 2094 
Q 5113 2597 4934 2840 
Q 4756 3084 4391 3084 
Q 3944 3084 3684 2787 
Q 3425 2491 3425 1978 
L 3425 0 
L 2847 0 
L 2847 2094 
Q 2847 2600 2669 2842 
Q 2491 3084 2119 3084 
Q 1678 3084 1418 2786 
Q 1159 2488 1159 1978 
L 1159 0 
L 581 0 
L 581 3500 
L 1159 3500 
L 1159 2956 
Q 1356 3278 1631 3431 
Q 1906 3584 2284 3584 
Q 2666 3584 2933 3390 
Q 3200 3197 3328 2828 
z
" transform="scale(0.015625)"/>
      <path id="DejaVuSans-6b" d="M 581 4863 
L 1159 4863 
L 1159 1991 
L 2875 3500 
L 3609 3500 
L 1753 1863 
L 3688 0 
L 2938 0 
L 1159 1709 
L 1159 0 
L 581 0 
L 581 4863 
z
" transform="scale(0.015625)"/>
     </defs>
     <use xlink:href="#DejaVuSans-52"/>
     <use xlink:href="#DejaVuSans-69" x="69.482422"/>
     <use xlink:href="#DejaVuSans-64" x="97.265625"/>
     <use xlink:href="#DejaVuSans-67" x="160.742188"/>
     <use xlink:href="#DejaVuSans-65" x="224.21875"/>
     <use xlink:href="#DejaVuSans-20" x="285.742188"/>
     <use xlink:href="#DejaVuSans-63" x="317.529297"/>
     <use xlink:href="#DejaVuSans-6f" x="372.509766"/>
     <use xlink:href="#DejaVuSans-65" x="433.691406"/>
     <use xlink:href="#DejaVuSans-66" x="495.214844"/>
     <use xlink:href="#DejaVuSans-66" x="530.419922"/>
     <use xlink:href="#DejaVuSans-69" x="565.625"/>
     <use xlink:href="#DejaVuSans-63" x="593.408203"/>
     <use xlink:href="#DejaVuSans-69" x="648.388672"/>
     <use xlink:href="#DejaVuSans-65" x="676.171875"/>
     <use xlink:href="#DejaVuSans-6e" x="737.695312"/>
     <use xlink:href="#DejaVuSans-74" x="801.074219"/>
     <use xlink:href="#DejaVuSans-20" x="840.283203"/>
     <use xlink:href="#DejaVuSans-70" x="872.070312"/>
     <use xlink:href="#DejaVuSans-61" x="935.546875"/>
     <use xlink:href="#DejaVuSans-74" x="996.826172"/>
     <use xlink:href="#DejaVuSans-68" x="1036.035156"/>
     <use xlink:href="#DejaVuSans-73" x="1099.414062"/>
     <use xlink:href="#DejaVuSans-3a" x="1151.513672"/>
     <use xlink:href="#DejaVuSans-20" x="1185.205078"/>
     <use xlink:href="#DejaVuSans-73" x="1216.992188"/>
     <use xlink:href="#DejaVuSans-6d" x="1269.091797"/>
     <use xlink:href="#DejaVuSans-6f" x="1366.503906"/>
     <use xlink:href="#DejaVuSans-6f" x="1427.685547"/>
     <use xlink:href="#DejaVuSans-74" x="1488.867188"/>
     <use xlink:href="#DejaVuSans-68" x="1528.076172"/>
     <use xlink:href="#DejaVuSans-20" x="1591.455078"/>
     <use xlink:href="#DejaVuSans-73" x="1623.242188"/>
     <use xlink:href="#DejaVuSans-68" x="1675.341797"/>
     <use xlink:href="#DejaVuSans-72" x="1738.720703"/>
     <use xlink:href="#DejaVuSans-69" x="1779.833984"/>
     <use xlink:href="#DejaVuSans-6e" x="1807.617188"/>
     <use xlink:href="#DejaVuSans-6b" x="1870.996094"/>
     <use xlink:href="#DejaVuSans-61" x="1927.15625"/>
     <use xlink:href="#DejaVuSans-67" x="1988.435547"/>
     <use xlink:href="#DejaVuSans-65" x="2051.912109"/>
    </g>
   </g>
  </g>
 </g>
 <defs>
  <clipPath id="pcd00b6d084">
   <rect x="58.953125" y="23.077969" width="411.607273" height="222.105455"/>
  </clipPath>
 </defs>
</svg>
